%TF.GenerationSoftware,KiCad,Pcbnew,(6.0.2)*%
%TF.CreationDate,2022-11-08T08:49:04-05:00*%
%TF.ProjectId,Main Board,4d61696e-2042-46f6-9172-642e6b696361,rev?*%
%TF.SameCoordinates,Original*%
%TF.FileFunction,Copper,L1,Top*%
%TF.FilePolarity,Positive*%
%FSLAX46Y46*%
G04 Gerber Fmt 4.6, Leading zero omitted, Abs format (unit mm)*
G04 Created by KiCad (PCBNEW (6.0.2)) date 2022-11-08 08:49:04*
%MOMM*%
%LPD*%
G01*
G04 APERTURE LIST*
G04 Aperture macros list*
%AMRoundRect*
0 Rectangle with rounded corners*
0 $1 Rounding radius*
0 $2 $3 $4 $5 $6 $7 $8 $9 X,Y pos of 4 corners*
0 Add a 4 corners polygon primitive as box body*
4,1,4,$2,$3,$4,$5,$6,$7,$8,$9,$2,$3,0*
0 Add four circle primitives for the rounded corners*
1,1,$1+$1,$2,$3*
1,1,$1+$1,$4,$5*
1,1,$1+$1,$6,$7*
1,1,$1+$1,$8,$9*
0 Add four rect primitives between the rounded corners*
20,1,$1+$1,$2,$3,$4,$5,0*
20,1,$1+$1,$4,$5,$6,$7,0*
20,1,$1+$1,$6,$7,$8,$9,0*
20,1,$1+$1,$8,$9,$2,$3,0*%
G04 Aperture macros list end*
%TA.AperFunction,SMDPad,CuDef*%
%ADD10RoundRect,0.150000X-0.825000X-0.150000X0.825000X-0.150000X0.825000X0.150000X-0.825000X0.150000X0*%
%TD*%
%TA.AperFunction,SMDPad,CuDef*%
%ADD11R,2.000000X1.700000*%
%TD*%
%TA.AperFunction,SMDPad,CuDef*%
%ADD12R,2.500000X1.700000*%
%TD*%
%TA.AperFunction,SMDPad,CuDef*%
%ADD13R,1.700000X2.500000*%
%TD*%
%TA.AperFunction,Conductor*%
%ADD14C,0.250000*%
%TD*%
G04 APERTURE END LIST*
D10*
%TO.P,U1,1,VCC*%
%TO.N,Net-(J1-Pad10)*%
X174055000Y-89535000D03*
%TO.P,U1,2,PA6*%
%TO.N,unconnected-(U1-Pad2)*%
X174055000Y-90805000D03*
%TO.P,U1,3,PA7*%
%TO.N,unconnected-(U1-Pad3)*%
X174055000Y-92075000D03*
%TO.P,U1,4,SDA*%
%TO.N,Net-(J4-Pad1)*%
X174055000Y-93345000D03*
%TO.P,U1,5,SCL*%
%TO.N,Net-(J3-Pad1)*%
X179005000Y-93345000D03*
%TO.P,U1,6,UPDI*%
%TO.N,Net-(J1-Pad1)*%
X179005000Y-92075000D03*
%TO.P,U1,7,Debug_LED*%
%TO.N,Net-(D1-Pad2)*%
X179005000Y-90805000D03*
%TO.P,U1,8,GND*%
%TO.N,Net-(J2-Pad1)*%
X179005000Y-89535000D03*
%TD*%
D11*
%TO.P,R3,2*%
%TO.N,Net-(J2-Pad1)*%
X182150000Y-88900000D03*
%TO.P,R3,1*%
%TO.N,Net-(D1-Pad1)*%
X186150000Y-88900000D03*
%TD*%
D12*
%TO.P,J4,1,Pin_1*%
%TO.N,Net-(J4-Pad1)*%
X197090000Y-79990000D03*
%TO.P,J4,2,Pin_2*%
X197090000Y-82530000D03*
%TO.P,J4,3,Pin_3*%
X197090000Y-85070000D03*
%TO.P,J4,4,Pin_4*%
X197090000Y-87610000D03*
%TO.P,J4,5,Pin_5*%
X197090000Y-90150000D03*
%TO.P,J4,6,Pin_6*%
X197090000Y-92690000D03*
%TO.P,J4,7,Pin_7*%
X197090000Y-95230000D03*
%TO.P,J4,8,Pin_8*%
X197090000Y-97770000D03*
%TO.P,J4,9,Pin_9*%
X197090000Y-100310000D03*
%TO.P,J4,10,Pin_10*%
X197090000Y-102850000D03*
%TD*%
D13*
%TO.P,J3,1,Pin_1*%
%TO.N,Net-(J3-Pad1)*%
X191790000Y-99300000D03*
%TO.P,J3,2,Pin_2*%
X189250000Y-99300000D03*
%TO.P,J3,3,Pin_3*%
X186710000Y-99300000D03*
%TO.P,J3,4,Pin_4*%
X184170000Y-99300000D03*
%TO.P,J3,5,Pin_5*%
X181630000Y-99300000D03*
%TO.P,J3,6,Pin_6*%
X179090000Y-99300000D03*
%TO.P,J3,7,Pin_7*%
X176550000Y-99300000D03*
%TO.P,J3,8,Pin_8*%
X174010000Y-99300000D03*
%TO.P,J3,9,Pin_9*%
X171470000Y-99300000D03*
%TO.P,J3,10,Pin_10*%
X168930000Y-99300000D03*
%TD*%
%TO.P,J2,10,Pin_10*%
%TO.N,Net-(J2-Pad1)*%
X191750000Y-83580000D03*
%TO.P,J2,9,Pin_9*%
X189210000Y-83580000D03*
%TO.P,J2,8,Pin_8*%
X186670000Y-83580000D03*
%TO.P,J2,7,Pin_7*%
X184130000Y-83580000D03*
%TO.P,J2,6,Pin_6*%
X181590000Y-83580000D03*
%TO.P,J2,5,Pin_5*%
X179050000Y-83580000D03*
%TO.P,J2,4,Pin_4*%
X176510000Y-83580000D03*
%TO.P,J2,3,Pin_3*%
X173970000Y-83580000D03*
%TO.P,J2,2,Pin_2*%
X171430000Y-83580000D03*
%TO.P,J2,1,Pin_1*%
X168890000Y-83580000D03*
%TD*%
D12*
%TO.P,J1,1,Pin_1*%
%TO.N,Net-(J1-Pad1)*%
X162320000Y-102890000D03*
%TO.P,J1,2,Pin_2*%
%TO.N,Net-(J1-Pad10)*%
X162320000Y-100350000D03*
%TO.P,J1,3,Pin_3*%
X162320000Y-97810000D03*
%TO.P,J1,4,Pin_4*%
X162320000Y-95270000D03*
%TO.P,J1,5,Pin_5*%
X162320000Y-92730000D03*
%TO.P,J1,6,Pin_6*%
X162320000Y-90190000D03*
%TO.P,J1,7,Pin_7*%
X162320000Y-87650000D03*
%TO.P,J1,8,Pin_8*%
X162320000Y-85110000D03*
%TO.P,J1,9,Pin_9*%
X162320000Y-82570000D03*
%TO.P,J1,10,Pin_10*%
X162320000Y-80030000D03*
%TD*%
D11*
%TO.P,D1,2,A*%
%TO.N,Net-(D1-Pad2)*%
X182150000Y-93980000D03*
%TO.P,D1,1,K*%
%TO.N,Net-(D1-Pad1)*%
X186150000Y-93980000D03*
%TD*%
D14*
%TO.N,Net-(J4-Pad1)*%
X169545000Y-93345000D02*
X174055000Y-93345000D01*
X166370000Y-96520000D02*
X169545000Y-93345000D01*
X193040000Y-102870000D02*
X167640000Y-102870000D01*
X167640000Y-102870000D02*
X166370000Y-101600000D01*
X166370000Y-101600000D02*
X166370000Y-96520000D01*
X197090000Y-100310000D02*
X195600000Y-100310000D01*
X195600000Y-100310000D02*
X193040000Y-102870000D01*
%TO.N,Net-(J1-Pad1)*%
X177165000Y-92075000D02*
X179005000Y-92075000D01*
X176530000Y-91440000D02*
X177165000Y-92075000D01*
X176530000Y-88900000D02*
X176530000Y-91440000D01*
X175260000Y-87630000D02*
X176530000Y-88900000D01*
X166370000Y-87630000D02*
X175260000Y-87630000D01*
X165100000Y-78740000D02*
X165100000Y-86360000D01*
X163830000Y-77470000D02*
X165100000Y-78740000D01*
X161290000Y-77470000D02*
X163830000Y-77470000D01*
X165100000Y-86360000D02*
X166370000Y-87630000D01*
X158750000Y-80010000D02*
X161290000Y-77470000D01*
X158750000Y-101600000D02*
X158750000Y-80010000D01*
X160040000Y-102890000D02*
X158750000Y-101600000D01*
X162320000Y-102890000D02*
X160040000Y-102890000D01*
%TO.N,Net-(J1-Pad10)*%
X173420000Y-88900000D02*
X174055000Y-89535000D01*
X165100000Y-88900000D02*
X173420000Y-88900000D01*
X163810000Y-90190000D02*
X165100000Y-88900000D01*
X162320000Y-90190000D02*
X163810000Y-90190000D01*
X162320000Y-80030000D02*
X162320000Y-100350000D01*
%TO.N,Net-(J4-Pad1)*%
X197090000Y-79990000D02*
X197090000Y-102850000D01*
%TO.N,Net-(J3-Pad1)*%
X168930000Y-99300000D02*
X191790000Y-99300000D01*
X179090000Y-93430000D02*
X179090000Y-99300000D01*
X179005000Y-93345000D02*
X179090000Y-93430000D01*
%TO.N,Net-(D1-Pad2)*%
X182150000Y-92880000D02*
X180075000Y-90805000D01*
X182150000Y-93980000D02*
X182150000Y-92880000D01*
X180075000Y-90805000D02*
X179005000Y-90805000D01*
%TO.N,Net-(D1-Pad1)*%
X186150000Y-88900000D02*
X186150000Y-93980000D01*
%TO.N,Net-(J2-Pad1)*%
X179640000Y-88900000D02*
X182150000Y-88900000D01*
X179005000Y-89535000D02*
X179640000Y-88900000D01*
X179050000Y-89490000D02*
X179005000Y-89535000D01*
X179050000Y-83580000D02*
X179050000Y-89490000D01*
X168890000Y-83580000D02*
X191750000Y-83580000D01*
%TD*%
M02*
