%TF.GenerationSoftware,KiCad,Pcbnew,(6.0.2)*%
%TF.CreationDate,2022-11-08T15:40:53-05:00*%
%TF.ProjectId,Main Board,4d61696e-2042-46f6-9172-642e6b696361,rev?*%
%TF.SameCoordinates,Original*%
%TF.FileFunction,Legend,Top*%
%TF.FilePolarity,Positive*%
%FSLAX46Y46*%
G04 Gerber Fmt 4.6, Leading zero omitted, Abs format (unit mm)*
G04 Created by KiCad (PCBNEW (6.0.2)) date 2022-11-08 15:40:53*
%MOMM*%
%LPD*%
G01*
G04 APERTURE LIST*
%ADD10C,0.150000*%
%ADD11C,0.120000*%
G04 APERTURE END LIST*
D10*
%TO.C,J2*%
X165802380Y-86391976D02*
X166516666Y-86391976D01*
X166659523Y-86439595D01*
X166754761Y-86534833D01*
X166802380Y-86677690D01*
X166802380Y-86772928D01*
X165897619Y-85963404D02*
X165850000Y-85915785D01*
X165802380Y-85820547D01*
X165802380Y-85582452D01*
X165850000Y-85487214D01*
X165897619Y-85439595D01*
X165992857Y-85391976D01*
X166088095Y-85391976D01*
X166230952Y-85439595D01*
X166802380Y-86011023D01*
X166802380Y-85391976D01*
%TO.C,J3*%
X193782380Y-97154690D02*
X194496666Y-97154690D01*
X194639523Y-97202309D01*
X194734761Y-97297547D01*
X194782380Y-97440404D01*
X194782380Y-97535642D01*
X193782380Y-96773738D02*
X193782380Y-96154690D01*
X194163333Y-96488023D01*
X194163333Y-96345166D01*
X194210952Y-96249928D01*
X194258571Y-96202309D01*
X194353809Y-96154690D01*
X194591904Y-96154690D01*
X194687142Y-96202309D01*
X194734761Y-96249928D01*
X194782380Y-96345166D01*
X194782380Y-96630880D01*
X194734761Y-96726119D01*
X194687142Y-96773738D01*
%TO.C,R3*%
X183983333Y-91202380D02*
X183650000Y-90726190D01*
X183411904Y-91202380D02*
X183411904Y-90202380D01*
X183792857Y-90202380D01*
X183888095Y-90250000D01*
X183935714Y-90297619D01*
X183983333Y-90392857D01*
X183983333Y-90535714D01*
X183935714Y-90630952D01*
X183888095Y-90678571D01*
X183792857Y-90726190D01*
X183411904Y-90726190D01*
X184316666Y-90202380D02*
X184935714Y-90202380D01*
X184602380Y-90583333D01*
X184745238Y-90583333D01*
X184840476Y-90630952D01*
X184888095Y-90678571D01*
X184935714Y-90773809D01*
X184935714Y-91011904D01*
X184888095Y-91107142D01*
X184840476Y-91154761D01*
X184745238Y-91202380D01*
X184459523Y-91202380D01*
X184364285Y-91154761D01*
X184316666Y-91107142D01*
%TO.C,D1*%
X183411904Y-96282380D02*
X183411904Y-95282380D01*
X183650000Y-95282380D01*
X183792857Y-95330000D01*
X183888095Y-95425238D01*
X183935714Y-95520476D01*
X183983333Y-95710952D01*
X183983333Y-95853809D01*
X183935714Y-96044285D01*
X183888095Y-96139523D01*
X183792857Y-96234761D01*
X183650000Y-96282380D01*
X183411904Y-96282380D01*
X184935714Y-96282380D02*
X184364285Y-96282380D01*
X184650000Y-96282380D02*
X184650000Y-95282380D01*
X184554761Y-95425238D01*
X184459523Y-95520476D01*
X184364285Y-95568095D01*
%TO.C,J4*%
X194278023Y-76902380D02*
X194278023Y-77616666D01*
X194230404Y-77759523D01*
X194135166Y-77854761D01*
X193992309Y-77902380D01*
X193897071Y-77902380D01*
X195182785Y-77235714D02*
X195182785Y-77902380D01*
X194944690Y-76854761D02*
X194706595Y-77569047D01*
X195325642Y-77569047D01*
%TO.C,U1*%
X175768095Y-87492380D02*
X175768095Y-88301904D01*
X175815714Y-88397142D01*
X175863333Y-88444761D01*
X175958571Y-88492380D01*
X176149047Y-88492380D01*
X176244285Y-88444761D01*
X176291904Y-88397142D01*
X176339523Y-88301904D01*
X176339523Y-87492380D01*
X177339523Y-88492380D02*
X176768095Y-88492380D01*
X177053809Y-88492380D02*
X177053809Y-87492380D01*
X176958571Y-87635238D01*
X176863333Y-87730476D01*
X176768095Y-87778095D01*
%TO.C,J1*%
X164465309Y-104882380D02*
X164465309Y-105596666D01*
X164417690Y-105739523D01*
X164322452Y-105834761D01*
X164179595Y-105882380D01*
X164084357Y-105882380D01*
X165465309Y-105882380D02*
X164893880Y-105882380D01*
X165179595Y-105882380D02*
X165179595Y-104882380D01*
X165084357Y-105025238D01*
X164989119Y-105120476D01*
X164893880Y-105168095D01*
D11*
%TO.C,J2*%
X173716000Y-79770000D02*
X173716000Y-82310000D01*
X193020000Y-77230000D02*
X193020000Y-79770000D01*
X176764000Y-79770000D02*
X176764000Y-82310000D01*
X178796000Y-79770000D02*
X178796000Y-82310000D01*
X179304000Y-79770000D02*
X179304000Y-82310000D01*
X193020000Y-79770000D02*
X167620000Y-79770000D01*
X186924000Y-79770000D02*
X186924000Y-82310000D01*
X188956000Y-79770000D02*
X188956000Y-82310000D01*
X171176000Y-79770000D02*
X171176000Y-82310000D01*
X191496000Y-79770000D02*
X191496000Y-82310000D01*
X167620000Y-77230000D02*
X193020000Y-77230000D01*
X171684000Y-79770000D02*
X171684000Y-82310000D01*
X167620000Y-79770000D02*
X167620000Y-77230000D01*
X189464000Y-79770000D02*
X189464000Y-82310000D01*
X176256000Y-79770000D02*
X176256000Y-82310000D01*
X192004000Y-79770000D02*
X192004000Y-82310000D01*
X174224000Y-79770000D02*
X174224000Y-82310000D01*
X181336000Y-79770000D02*
X181336000Y-82310000D01*
X186416000Y-79770000D02*
X186416000Y-82310000D01*
X181844000Y-79770000D02*
X181844000Y-82310000D01*
X183876000Y-79770000D02*
X183876000Y-82310000D01*
X169144000Y-79770000D02*
X169144000Y-82310000D01*
X167620000Y-84850000D02*
X167620000Y-83580000D01*
X168636000Y-79770000D02*
X168636000Y-82310000D01*
X184384000Y-79770000D02*
X184384000Y-82310000D01*
%TO.C,J3*%
X176804000Y-103110000D02*
X176804000Y-100570000D01*
X173756000Y-103110000D02*
X173756000Y-100570000D01*
X167660000Y-105650000D02*
X167660000Y-103110000D01*
X186456000Y-103110000D02*
X186456000Y-100570000D01*
X192044000Y-103110000D02*
X192044000Y-100570000D01*
X191536000Y-103110000D02*
X191536000Y-100570000D01*
X179344000Y-103110000D02*
X179344000Y-100570000D01*
X167660000Y-103110000D02*
X193060000Y-103110000D01*
X193060000Y-103110000D02*
X193060000Y-105650000D01*
X188996000Y-103110000D02*
X188996000Y-100570000D01*
X171724000Y-103110000D02*
X171724000Y-100570000D01*
X189504000Y-103110000D02*
X189504000Y-100570000D01*
X178836000Y-103110000D02*
X178836000Y-100570000D01*
X181884000Y-103110000D02*
X181884000Y-100570000D01*
X183916000Y-103110000D02*
X183916000Y-100570000D01*
X176296000Y-103110000D02*
X176296000Y-100570000D01*
X168676000Y-103110000D02*
X168676000Y-100570000D01*
X181376000Y-103110000D02*
X181376000Y-100570000D01*
X184424000Y-103110000D02*
X184424000Y-100570000D01*
X169184000Y-103110000D02*
X169184000Y-100570000D01*
X174264000Y-103110000D02*
X174264000Y-100570000D01*
X193060000Y-98030000D02*
X193060000Y-99300000D01*
X171216000Y-103110000D02*
X171216000Y-100570000D01*
X193060000Y-105650000D02*
X167660000Y-105650000D01*
X186964000Y-103110000D02*
X186964000Y-100570000D01*
%TO.C,R3*%
X183150000Y-87830000D02*
X185150000Y-87830000D01*
X185150000Y-89970000D02*
X183150000Y-89970000D01*
%TO.C,D1*%
X187250000Y-94930000D02*
X187250000Y-93030000D01*
X187250000Y-93030000D02*
X182550000Y-93030000D01*
X187250000Y-94930000D02*
X182550000Y-94930000D01*
%TO.C,J4*%
X195820000Y-78720000D02*
X197090000Y-78720000D01*
X200900000Y-80244000D02*
X198360000Y-80244000D01*
X200900000Y-82784000D02*
X198360000Y-82784000D01*
X200900000Y-89896000D02*
X198360000Y-89896000D01*
X200900000Y-102596000D02*
X198360000Y-102596000D01*
X200900000Y-100056000D02*
X198360000Y-100056000D01*
X200900000Y-98024000D02*
X198360000Y-98024000D01*
X200900000Y-78720000D02*
X203440000Y-78720000D01*
X200900000Y-103104000D02*
X198360000Y-103104000D01*
X200900000Y-85324000D02*
X198360000Y-85324000D01*
X200900000Y-92944000D02*
X198360000Y-92944000D01*
X200900000Y-97516000D02*
X198360000Y-97516000D01*
X200900000Y-95484000D02*
X198360000Y-95484000D01*
X203440000Y-104120000D02*
X200900000Y-104120000D01*
X200900000Y-92436000D02*
X198360000Y-92436000D01*
X200900000Y-100564000D02*
X198360000Y-100564000D01*
X200900000Y-79736000D02*
X198360000Y-79736000D01*
X200900000Y-82276000D02*
X198360000Y-82276000D01*
X200900000Y-87864000D02*
X198360000Y-87864000D01*
X200900000Y-104120000D02*
X200900000Y-78720000D01*
X200900000Y-94976000D02*
X198360000Y-94976000D01*
X200900000Y-84816000D02*
X198360000Y-84816000D01*
X200900000Y-87356000D02*
X198360000Y-87356000D01*
X200900000Y-90404000D02*
X198360000Y-90404000D01*
X203440000Y-78720000D02*
X203440000Y-104120000D01*
%TO.C,U1*%
X176530000Y-88880000D02*
X178480000Y-88880000D01*
X176530000Y-94000000D02*
X174580000Y-94000000D01*
X176530000Y-88880000D02*
X173080000Y-88880000D01*
X176530000Y-94000000D02*
X178480000Y-94000000D01*
%TO.C,J1*%
X158510000Y-102636000D02*
X161050000Y-102636000D01*
X158510000Y-79776000D02*
X161050000Y-79776000D01*
X158510000Y-98064000D02*
X161050000Y-98064000D01*
X158510000Y-100604000D02*
X161050000Y-100604000D01*
X158510000Y-78760000D02*
X158510000Y-104160000D01*
X158510000Y-87396000D02*
X161050000Y-87396000D01*
X155970000Y-78760000D02*
X158510000Y-78760000D01*
X158510000Y-92984000D02*
X161050000Y-92984000D01*
X158510000Y-103144000D02*
X161050000Y-103144000D01*
X158510000Y-92476000D02*
X161050000Y-92476000D01*
X158510000Y-84856000D02*
X161050000Y-84856000D01*
X163590000Y-104160000D02*
X162320000Y-104160000D01*
X158510000Y-82316000D02*
X161050000Y-82316000D01*
X155970000Y-104160000D02*
X155970000Y-78760000D01*
X158510000Y-104160000D02*
X155970000Y-104160000D01*
X158510000Y-87904000D02*
X161050000Y-87904000D01*
X158510000Y-90444000D02*
X161050000Y-90444000D01*
X158510000Y-95524000D02*
X161050000Y-95524000D01*
X158510000Y-100096000D02*
X161050000Y-100096000D01*
X158510000Y-82824000D02*
X161050000Y-82824000D01*
X158510000Y-95016000D02*
X161050000Y-95016000D01*
X158510000Y-89936000D02*
X161050000Y-89936000D01*
X158510000Y-85364000D02*
X161050000Y-85364000D01*
X158510000Y-97556000D02*
X161050000Y-97556000D01*
X158510000Y-80284000D02*
X161050000Y-80284000D01*
%TD*%
M02*
