%TF.GenerationSoftware,KiCad,Pcbnew,(6.0.2)*%
%TF.CreationDate,2022-12-05T07:17:16-05:00*%
%TF.ProjectId,Comms,436f6d6d-732e-46b6-9963-61645f706362,rev?*%
%TF.SameCoordinates,Original*%
%TF.FileFunction,Profile,NP*%
%FSLAX46Y46*%
G04 Gerber Fmt 4.6, Leading zero omitted, Abs format (unit mm)*
G04 Created by KiCad (PCBNEW (6.0.2)) date 2022-12-05 07:17:16*
%MOMM*%
%LPD*%
G01*
G04 APERTURE LIST*
%TA.AperFunction,Profile*%
%ADD10C,0.100000*%
%TD*%
G04 APERTURE END LIST*
D10*
X208280000Y-116840000D02*
G75*
G03*
X210820000Y-114300000I-1J2540001D01*
G01*
X109845000Y-114820000D02*
X109845000Y-84340000D01*
X158105000Y-117360000D02*
G75*
G03*
X160645000Y-114820000I-1J2540001D01*
G01*
X165100000Y-114300000D02*
X165100000Y-83820000D01*
X156220000Y-78795000D02*
G75*
G03*
X158760000Y-76255000I-1J2540001D01*
G01*
X112385000Y-81800000D02*
G75*
G03*
X109845000Y-84340000I1J-2540001D01*
G01*
X158760000Y-45775000D02*
X158760000Y-76255000D01*
X158760000Y-45775000D02*
G75*
G03*
X156220000Y-43235000I-2540001J-1D01*
G01*
X160645000Y-112280000D02*
X160645000Y-114820000D01*
X115580000Y-43235000D02*
G75*
G03*
X113040000Y-45775000I1J-2540001D01*
G01*
X112385000Y-81800000D02*
X158105000Y-81800000D01*
X109845000Y-114820000D02*
G75*
G03*
X112385000Y-117360000I2540001J1D01*
G01*
X160645000Y-84340000D02*
G75*
G03*
X158105000Y-81800000I-2540001J-1D01*
G01*
X115580000Y-43235000D02*
X133360000Y-43235000D01*
X158105000Y-117360000D02*
X112385000Y-117360000D01*
X167640000Y-81280000D02*
X185420000Y-81280000D01*
X133360000Y-43235000D02*
X156220000Y-43235000D01*
X160645000Y-84340000D02*
X160645000Y-112280000D01*
X185420000Y-81280000D02*
X208280000Y-81280000D01*
X113040000Y-76255000D02*
X113040000Y-45775000D01*
X167640000Y-81280000D02*
G75*
G03*
X165100000Y-83820000I1J-2540001D01*
G01*
X156220000Y-78795000D02*
X115580000Y-78795000D01*
X113040000Y-76255000D02*
G75*
G03*
X115580000Y-78795000I2540001J1D01*
G01*
X210820000Y-83820000D02*
G75*
G03*
X208280000Y-81280000I-2540001J-1D01*
G01*
X165100000Y-114300000D02*
G75*
G03*
X167640000Y-116840000I2540001J1D01*
G01*
X208280000Y-116840000D02*
X167640000Y-116840000D01*
X210820000Y-83820000D02*
X210820000Y-114300000D01*
M02*
