%TF.GenerationSoftware,KiCad,Pcbnew,(6.0.2)*%
%TF.CreationDate,2022-12-06T07:33:19-05:00*%
%TF.ProjectId,Comms,436f6d6d-732e-46b6-9963-61645f706362,rev?*%
%TF.SameCoordinates,Original*%
%TF.FileFunction,Copper,L1,Top*%
%TF.FilePolarity,Positive*%
%FSLAX46Y46*%
G04 Gerber Fmt 4.6, Leading zero omitted, Abs format (unit mm)*
G04 Created by KiCad (PCBNEW (6.0.2)) date 2022-12-06 07:33:19*
%MOMM*%
%LPD*%
G01*
G04 APERTURE LIST*
%ADD10C,0.300000*%
%TA.AperFunction,NonConductor*%
%ADD11C,0.300000*%
%TD*%
%TA.AperFunction,SMDPad,CuDef*%
%ADD12R,2.000000X1.700000*%
%TD*%
%TA.AperFunction,SMDPad,CuDef*%
%ADD13R,2.500000X1.700000*%
%TD*%
%TA.AperFunction,SMDPad,CuDef*%
%ADD14R,1.700000X2.500000*%
%TD*%
%TA.AperFunction,SMDPad,CuDef*%
%ADD15R,2.000000X0.600000*%
%TD*%
%TA.AperFunction,Conductor*%
%ADD16C,0.500000*%
%TD*%
G04 APERTURE END LIST*
D10*
D11*
X115145714Y-98468571D02*
X115145714Y-96968571D01*
X115717142Y-96968571D01*
X115860000Y-97040000D01*
X115931428Y-97111428D01*
X116002857Y-97254285D01*
X116002857Y-97468571D01*
X115931428Y-97611428D01*
X115860000Y-97682857D01*
X115717142Y-97754285D01*
X115145714Y-97754285D01*
X116860000Y-98468571D02*
X116717142Y-98397142D01*
X116645714Y-98325714D01*
X116574285Y-98182857D01*
X116574285Y-97754285D01*
X116645714Y-97611428D01*
X116717142Y-97540000D01*
X116860000Y-97468571D01*
X117074285Y-97468571D01*
X117217142Y-97540000D01*
X117288571Y-97611428D01*
X117360000Y-97754285D01*
X117360000Y-98182857D01*
X117288571Y-98325714D01*
X117217142Y-98397142D01*
X117074285Y-98468571D01*
X116860000Y-98468571D01*
X117860000Y-97468571D02*
X118145714Y-98468571D01*
X118431428Y-97754285D01*
X118717142Y-98468571D01*
X119002857Y-97468571D01*
X120145714Y-98397142D02*
X120002857Y-98468571D01*
X119717142Y-98468571D01*
X119574285Y-98397142D01*
X119502857Y-98254285D01*
X119502857Y-97682857D01*
X119574285Y-97540000D01*
X119717142Y-97468571D01*
X120002857Y-97468571D01*
X120145714Y-97540000D01*
X120217142Y-97682857D01*
X120217142Y-97825714D01*
X119502857Y-97968571D01*
X120860000Y-98468571D02*
X120860000Y-97468571D01*
X120860000Y-97754285D02*
X120931428Y-97611428D01*
X121002857Y-97540000D01*
X121145714Y-97468571D01*
X121288571Y-97468571D01*
D10*
D11*
X146739285Y-87181428D02*
X146739285Y-85967142D01*
X146667857Y-85824285D01*
X146596428Y-85752857D01*
X146453571Y-85681428D01*
X146167857Y-85681428D01*
X146025000Y-85752857D01*
X145953571Y-85824285D01*
X145882142Y-85967142D01*
X145882142Y-87181428D01*
X145167857Y-85681428D02*
X145167857Y-87181428D01*
X144596428Y-87181428D01*
X144453571Y-87110000D01*
X144382142Y-87038571D01*
X144310714Y-86895714D01*
X144310714Y-86681428D01*
X144382142Y-86538571D01*
X144453571Y-86467142D01*
X144596428Y-86395714D01*
X145167857Y-86395714D01*
X143667857Y-85681428D02*
X143667857Y-87181428D01*
X143310714Y-87181428D01*
X143096428Y-87110000D01*
X142953571Y-86967142D01*
X142882142Y-86824285D01*
X142810714Y-86538571D01*
X142810714Y-86324285D01*
X142882142Y-86038571D01*
X142953571Y-85895714D01*
X143096428Y-85752857D01*
X143310714Y-85681428D01*
X143667857Y-85681428D01*
X142167857Y-85681428D02*
X142167857Y-87181428D01*
X141382142Y-85752857D02*
X141382142Y-85681428D01*
X141453571Y-85538571D01*
X141525000Y-85467142D01*
X138810714Y-87110000D02*
X138953571Y-87181428D01*
X139167857Y-87181428D01*
X139382142Y-87110000D01*
X139525000Y-86967142D01*
X139596428Y-86824285D01*
X139667857Y-86538571D01*
X139667857Y-86324285D01*
X139596428Y-86038571D01*
X139525000Y-85895714D01*
X139382142Y-85752857D01*
X139167857Y-85681428D01*
X139025000Y-85681428D01*
X138810714Y-85752857D01*
X138739285Y-85824285D01*
X138739285Y-86324285D01*
X139025000Y-86324285D01*
X138096428Y-85681428D02*
X138096428Y-86681428D01*
X138096428Y-86395714D02*
X138025000Y-86538571D01*
X137953571Y-86610000D01*
X137810714Y-86681428D01*
X137667857Y-86681428D01*
X136953571Y-85681428D02*
X137096428Y-85752857D01*
X137167857Y-85824285D01*
X137239285Y-85967142D01*
X137239285Y-86395714D01*
X137167857Y-86538571D01*
X137096428Y-86610000D01*
X136953571Y-86681428D01*
X136739285Y-86681428D01*
X136596428Y-86610000D01*
X136525000Y-86538571D01*
X136453571Y-86395714D01*
X136453571Y-85967142D01*
X136525000Y-85824285D01*
X136596428Y-85752857D01*
X136739285Y-85681428D01*
X136953571Y-85681428D01*
X135167857Y-86681428D02*
X135167857Y-85681428D01*
X135810714Y-86681428D02*
X135810714Y-85895714D01*
X135739285Y-85752857D01*
X135596428Y-85681428D01*
X135382142Y-85681428D01*
X135239285Y-85752857D01*
X135167857Y-85824285D01*
X134453571Y-86681428D02*
X134453571Y-85681428D01*
X134453571Y-86538571D02*
X134382142Y-86610000D01*
X134239285Y-86681428D01*
X134025000Y-86681428D01*
X133882142Y-86610000D01*
X133810714Y-86467142D01*
X133810714Y-85681428D01*
X132453571Y-85681428D02*
X132453571Y-87181428D01*
X132453571Y-85752857D02*
X132596428Y-85681428D01*
X132882142Y-85681428D01*
X133025000Y-85752857D01*
X133096428Y-85824285D01*
X133167857Y-85967142D01*
X133167857Y-86395714D01*
X133096428Y-86538571D01*
X133025000Y-86610000D01*
X132882142Y-86681428D01*
X132596428Y-86681428D01*
X132453571Y-86610000D01*
X131667857Y-85752857D02*
X131667857Y-85681428D01*
X131739285Y-85538571D01*
X131810714Y-85467142D01*
X130096428Y-87181428D02*
X129596428Y-85681428D01*
X129096428Y-87181428D01*
X127739285Y-85824285D02*
X127810714Y-85752857D01*
X128025000Y-85681428D01*
X128167857Y-85681428D01*
X128382142Y-85752857D01*
X128525000Y-85895714D01*
X128596428Y-86038571D01*
X128667857Y-86324285D01*
X128667857Y-86538571D01*
X128596428Y-86824285D01*
X128525000Y-86967142D01*
X128382142Y-87110000D01*
X128167857Y-87181428D01*
X128025000Y-87181428D01*
X127810714Y-87110000D01*
X127739285Y-87038571D01*
X126239285Y-85824285D02*
X126310714Y-85752857D01*
X126525000Y-85681428D01*
X126667857Y-85681428D01*
X126882142Y-85752857D01*
X127025000Y-85895714D01*
X127096428Y-86038571D01*
X127167857Y-86324285D01*
X127167857Y-86538571D01*
X127096428Y-86824285D01*
X127025000Y-86967142D01*
X126882142Y-87110000D01*
X126667857Y-87181428D01*
X126525000Y-87181428D01*
X126310714Y-87110000D01*
X126239285Y-87038571D01*
D10*
D11*
X127882857Y-121812857D02*
X128382857Y-121812857D01*
X128597142Y-122598571D02*
X127882857Y-122598571D01*
X127882857Y-121098571D01*
X128597142Y-121098571D01*
X129097142Y-122598571D02*
X129882857Y-121598571D01*
X129097142Y-121598571D02*
X129882857Y-122598571D01*
X130240000Y-121598571D02*
X130811428Y-121598571D01*
X130454285Y-121098571D02*
X130454285Y-122384285D01*
X130525714Y-122527142D01*
X130668571Y-122598571D01*
X130811428Y-122598571D01*
X131882857Y-122527142D02*
X131740000Y-122598571D01*
X131454285Y-122598571D01*
X131311428Y-122527142D01*
X131240000Y-122384285D01*
X131240000Y-121812857D01*
X131311428Y-121670000D01*
X131454285Y-121598571D01*
X131740000Y-121598571D01*
X131882857Y-121670000D01*
X131954285Y-121812857D01*
X131954285Y-121955714D01*
X131240000Y-122098571D01*
X132597142Y-122598571D02*
X132597142Y-121598571D01*
X132597142Y-121884285D02*
X132668571Y-121741428D01*
X132740000Y-121670000D01*
X132882857Y-121598571D01*
X133025714Y-121598571D01*
X133525714Y-121598571D02*
X133525714Y-122598571D01*
X133525714Y-121741428D02*
X133597142Y-121670000D01*
X133740000Y-121598571D01*
X133954285Y-121598571D01*
X134097142Y-121670000D01*
X134168571Y-121812857D01*
X134168571Y-122598571D01*
X135525714Y-122598571D02*
X135525714Y-121812857D01*
X135454285Y-121670000D01*
X135311428Y-121598571D01*
X135025714Y-121598571D01*
X134882857Y-121670000D01*
X135525714Y-122527142D02*
X135382857Y-122598571D01*
X135025714Y-122598571D01*
X134882857Y-122527142D01*
X134811428Y-122384285D01*
X134811428Y-122241428D01*
X134882857Y-122098571D01*
X135025714Y-122027142D01*
X135382857Y-122027142D01*
X135525714Y-121955714D01*
X136454285Y-122598571D02*
X136311428Y-122527142D01*
X136240000Y-122384285D01*
X136240000Y-121098571D01*
X137954285Y-121098571D02*
X138454285Y-122598571D01*
X138954285Y-121098571D01*
X140311428Y-122455714D02*
X140240000Y-122527142D01*
X140025714Y-122598571D01*
X139882857Y-122598571D01*
X139668571Y-122527142D01*
X139525714Y-122384285D01*
X139454285Y-122241428D01*
X139382857Y-121955714D01*
X139382857Y-121741428D01*
X139454285Y-121455714D01*
X139525714Y-121312857D01*
X139668571Y-121170000D01*
X139882857Y-121098571D01*
X140025714Y-121098571D01*
X140240000Y-121170000D01*
X140311428Y-121241428D01*
X141811428Y-122455714D02*
X141740000Y-122527142D01*
X141525714Y-122598571D01*
X141382857Y-122598571D01*
X141168571Y-122527142D01*
X141025714Y-122384285D01*
X140954285Y-122241428D01*
X140882857Y-121955714D01*
X140882857Y-121741428D01*
X140954285Y-121455714D01*
X141025714Y-121312857D01*
X141168571Y-121170000D01*
X141382857Y-121098571D01*
X141525714Y-121098571D01*
X141740000Y-121170000D01*
X141811428Y-121241428D01*
X142525714Y-122527142D02*
X142525714Y-122598571D01*
X142454285Y-122741428D01*
X142382857Y-122812857D01*
X144240000Y-122527142D02*
X144454285Y-122598571D01*
X144811428Y-122598571D01*
X144954285Y-122527142D01*
X145025714Y-122455714D01*
X145097142Y-122312857D01*
X145097142Y-122170000D01*
X145025714Y-122027142D01*
X144954285Y-121955714D01*
X144811428Y-121884285D01*
X144525714Y-121812857D01*
X144382857Y-121741428D01*
X144311428Y-121670000D01*
X144240000Y-121527142D01*
X144240000Y-121384285D01*
X144311428Y-121241428D01*
X144382857Y-121170000D01*
X144525714Y-121098571D01*
X144882857Y-121098571D01*
X145097142Y-121170000D01*
X146382857Y-122527142D02*
X146240000Y-122598571D01*
X145954285Y-122598571D01*
X145811428Y-122527142D01*
X145740000Y-122455714D01*
X145668571Y-122312857D01*
X145668571Y-121884285D01*
X145740000Y-121741428D01*
X145811428Y-121670000D01*
X145954285Y-121598571D01*
X146240000Y-121598571D01*
X146382857Y-121670000D01*
X147025714Y-122598571D02*
X147025714Y-121598571D01*
X147025714Y-121884285D02*
X147097142Y-121741428D01*
X147168571Y-121670000D01*
X147311428Y-121598571D01*
X147454285Y-121598571D01*
X148525714Y-122527142D02*
X148382857Y-122598571D01*
X148097142Y-122598571D01*
X147954285Y-122527142D01*
X147882857Y-122384285D01*
X147882857Y-121812857D01*
X147954285Y-121670000D01*
X148097142Y-121598571D01*
X148382857Y-121598571D01*
X148525714Y-121670000D01*
X148597142Y-121812857D01*
X148597142Y-121955714D01*
X147882857Y-122098571D01*
X149811428Y-122527142D02*
X149668571Y-122598571D01*
X149382857Y-122598571D01*
X149240000Y-122527142D01*
X149168571Y-122384285D01*
X149168571Y-121812857D01*
X149240000Y-121670000D01*
X149382857Y-121598571D01*
X149668571Y-121598571D01*
X149811428Y-121670000D01*
X149882857Y-121812857D01*
X149882857Y-121955714D01*
X149168571Y-122098571D01*
X150525714Y-121598571D02*
X150525714Y-122598571D01*
X150525714Y-121741428D02*
X150597142Y-121670000D01*
X150740000Y-121598571D01*
X150954285Y-121598571D01*
X151097142Y-121670000D01*
X151168571Y-121812857D01*
X151168571Y-122598571D01*
X152811428Y-121098571D02*
X153311428Y-122598571D01*
X153811428Y-121098571D01*
X155168571Y-122455714D02*
X155097142Y-122527142D01*
X154882857Y-122598571D01*
X154740000Y-122598571D01*
X154525714Y-122527142D01*
X154382857Y-122384285D01*
X154311428Y-122241428D01*
X154240000Y-121955714D01*
X154240000Y-121741428D01*
X154311428Y-121455714D01*
X154382857Y-121312857D01*
X154525714Y-121170000D01*
X154740000Y-121098571D01*
X154882857Y-121098571D01*
X155097142Y-121170000D01*
X155168571Y-121241428D01*
X156668571Y-122455714D02*
X156597142Y-122527142D01*
X156382857Y-122598571D01*
X156240000Y-122598571D01*
X156025714Y-122527142D01*
X155882857Y-122384285D01*
X155811428Y-122241428D01*
X155740000Y-121955714D01*
X155740000Y-121741428D01*
X155811428Y-121455714D01*
X155882857Y-121312857D01*
X156025714Y-121170000D01*
X156240000Y-121098571D01*
X156382857Y-121098571D01*
X156597142Y-121170000D01*
X156668571Y-121241428D01*
D10*
D11*
X112999047Y-88689523D02*
X112999047Y-84689523D01*
X113951428Y-84689523D01*
X114522857Y-84880000D01*
X114903809Y-85260952D01*
X115094285Y-85641904D01*
X115284761Y-86403809D01*
X115284761Y-86975238D01*
X115094285Y-87737142D01*
X114903809Y-88118095D01*
X114522857Y-88499047D01*
X113951428Y-88689523D01*
X112999047Y-88689523D01*
X116999047Y-88689523D02*
X116999047Y-86022857D01*
X116999047Y-84689523D02*
X116808571Y-84880000D01*
X116999047Y-85070476D01*
X117189523Y-84880000D01*
X116999047Y-84689523D01*
X116999047Y-85070476D01*
X118713333Y-88499047D02*
X119094285Y-88689523D01*
X119856190Y-88689523D01*
X120237142Y-88499047D01*
X120427619Y-88118095D01*
X120427619Y-87927619D01*
X120237142Y-87546666D01*
X119856190Y-87356190D01*
X119284761Y-87356190D01*
X118903809Y-87165714D01*
X118713333Y-86784761D01*
X118713333Y-86594285D01*
X118903809Y-86213333D01*
X119284761Y-86022857D01*
X119856190Y-86022857D01*
X120237142Y-86213333D01*
X122141904Y-86022857D02*
X122141904Y-90022857D01*
X122141904Y-86213333D02*
X122522857Y-86022857D01*
X123284761Y-86022857D01*
X123665714Y-86213333D01*
X123856190Y-86403809D01*
X124046666Y-86784761D01*
X124046666Y-87927619D01*
X123856190Y-88308571D01*
X123665714Y-88499047D01*
X123284761Y-88689523D01*
X122522857Y-88689523D01*
X122141904Y-88499047D01*
X125760952Y-88308571D02*
X125951428Y-88499047D01*
X125760952Y-88689523D01*
X125570476Y-88499047D01*
X125760952Y-88308571D01*
X125760952Y-88689523D01*
D10*
D11*
X116308571Y-111168571D02*
X116308571Y-109668571D01*
X116665714Y-109668571D01*
X116880000Y-109740000D01*
X117022857Y-109882857D01*
X117094285Y-110025714D01*
X117165714Y-110311428D01*
X117165714Y-110525714D01*
X117094285Y-110811428D01*
X117022857Y-110954285D01*
X116880000Y-111097142D01*
X116665714Y-111168571D01*
X116308571Y-111168571D01*
X118380000Y-111097142D02*
X118237142Y-111168571D01*
X117951428Y-111168571D01*
X117808571Y-111097142D01*
X117737142Y-110954285D01*
X117737142Y-110382857D01*
X117808571Y-110240000D01*
X117951428Y-110168571D01*
X118237142Y-110168571D01*
X118380000Y-110240000D01*
X118451428Y-110382857D01*
X118451428Y-110525714D01*
X117737142Y-110668571D01*
X119094285Y-111168571D02*
X119094285Y-109668571D01*
X119094285Y-110240000D02*
X119237142Y-110168571D01*
X119522857Y-110168571D01*
X119665714Y-110240000D01*
X119737142Y-110311428D01*
X119808571Y-110454285D01*
X119808571Y-110882857D01*
X119737142Y-111025714D01*
X119665714Y-111097142D01*
X119522857Y-111168571D01*
X119237142Y-111168571D01*
X119094285Y-111097142D01*
X121094285Y-110168571D02*
X121094285Y-111168571D01*
X120451428Y-110168571D02*
X120451428Y-110954285D01*
X120522857Y-111097142D01*
X120665714Y-111168571D01*
X120880000Y-111168571D01*
X121022857Y-111097142D01*
X121094285Y-111025714D01*
X122451428Y-110168571D02*
X122451428Y-111382857D01*
X122380000Y-111525714D01*
X122308571Y-111597142D01*
X122165714Y-111668571D01*
X121951428Y-111668571D01*
X121808571Y-111597142D01*
X122451428Y-111097142D02*
X122308571Y-111168571D01*
X122022857Y-111168571D01*
X121880000Y-111097142D01*
X121808571Y-111025714D01*
X121737142Y-110882857D01*
X121737142Y-110454285D01*
X121808571Y-110311428D01*
X121880000Y-110240000D01*
X122022857Y-110168571D01*
X122308571Y-110168571D01*
X122451428Y-110240000D01*
D10*
D11*
X155547142Y-113818571D02*
X155618571Y-113604285D01*
X155618571Y-113247142D01*
X155547142Y-113104285D01*
X155475714Y-113032857D01*
X155332857Y-112961428D01*
X155190000Y-112961428D01*
X155047142Y-113032857D01*
X154975714Y-113104285D01*
X154904285Y-113247142D01*
X154832857Y-113532857D01*
X154761428Y-113675714D01*
X154690000Y-113747142D01*
X154547142Y-113818571D01*
X154404285Y-113818571D01*
X154261428Y-113747142D01*
X154190000Y-113675714D01*
X154118571Y-113532857D01*
X154118571Y-113175714D01*
X154190000Y-112961428D01*
X155618571Y-112318571D02*
X154118571Y-112318571D01*
X154118571Y-111961428D01*
X154190000Y-111747142D01*
X154332857Y-111604285D01*
X154475714Y-111532857D01*
X154761428Y-111461428D01*
X154975714Y-111461428D01*
X155261428Y-111532857D01*
X155404285Y-111604285D01*
X155547142Y-111747142D01*
X155618571Y-111961428D01*
X155618571Y-112318571D01*
X155190000Y-110890000D02*
X155190000Y-110175714D01*
X155618571Y-111032857D02*
X154118571Y-110532857D01*
X155618571Y-110032857D01*
X155547142Y-109461428D02*
X155618571Y-109461428D01*
X155761428Y-109532857D01*
X155832857Y-109604285D01*
X155547142Y-107747142D02*
X155618571Y-107532857D01*
X155618571Y-107175714D01*
X155547142Y-107032857D01*
X155475714Y-106961428D01*
X155332857Y-106890000D01*
X155190000Y-106890000D01*
X155047142Y-106961428D01*
X154975714Y-107032857D01*
X154904285Y-107175714D01*
X154832857Y-107461428D01*
X154761428Y-107604285D01*
X154690000Y-107675714D01*
X154547142Y-107747142D01*
X154404285Y-107747142D01*
X154261428Y-107675714D01*
X154190000Y-107604285D01*
X154118571Y-107461428D01*
X154118571Y-107104285D01*
X154190000Y-106890000D01*
X155475714Y-105390000D02*
X155547142Y-105461428D01*
X155618571Y-105675714D01*
X155618571Y-105818571D01*
X155547142Y-106032857D01*
X155404285Y-106175714D01*
X155261428Y-106247142D01*
X154975714Y-106318571D01*
X154761428Y-106318571D01*
X154475714Y-106247142D01*
X154332857Y-106175714D01*
X154190000Y-106032857D01*
X154118571Y-105818571D01*
X154118571Y-105675714D01*
X154190000Y-105461428D01*
X154261428Y-105390000D01*
X155618571Y-104032857D02*
X155618571Y-104747142D01*
X154118571Y-104747142D01*
X155547142Y-103461428D02*
X155618571Y-103461428D01*
X155761428Y-103532857D01*
X155832857Y-103604285D01*
X154190000Y-100890000D02*
X154118571Y-101032857D01*
X154118571Y-101247142D01*
X154190000Y-101461428D01*
X154332857Y-101604285D01*
X154475714Y-101675714D01*
X154761428Y-101747142D01*
X154975714Y-101747142D01*
X155261428Y-101675714D01*
X155404285Y-101604285D01*
X155547142Y-101461428D01*
X155618571Y-101247142D01*
X155618571Y-101104285D01*
X155547142Y-100890000D01*
X155475714Y-100818571D01*
X154975714Y-100818571D01*
X154975714Y-101104285D01*
X155618571Y-100175714D02*
X154618571Y-100175714D01*
X154904285Y-100175714D02*
X154761428Y-100104285D01*
X154690000Y-100032857D01*
X154618571Y-99890000D01*
X154618571Y-99747142D01*
X155618571Y-99032857D02*
X155547142Y-99175714D01*
X155475714Y-99247142D01*
X155332857Y-99318571D01*
X154904285Y-99318571D01*
X154761428Y-99247142D01*
X154690000Y-99175714D01*
X154618571Y-99032857D01*
X154618571Y-98818571D01*
X154690000Y-98675714D01*
X154761428Y-98604285D01*
X154904285Y-98532857D01*
X155332857Y-98532857D01*
X155475714Y-98604285D01*
X155547142Y-98675714D01*
X155618571Y-98818571D01*
X155618571Y-99032857D01*
X154618571Y-97247142D02*
X155618571Y-97247142D01*
X154618571Y-97890000D02*
X155404285Y-97890000D01*
X155547142Y-97818571D01*
X155618571Y-97675714D01*
X155618571Y-97461428D01*
X155547142Y-97318571D01*
X155475714Y-97247142D01*
X154618571Y-96532857D02*
X155618571Y-96532857D01*
X154761428Y-96532857D02*
X154690000Y-96461428D01*
X154618571Y-96318571D01*
X154618571Y-96104285D01*
X154690000Y-95961428D01*
X154832857Y-95890000D01*
X155618571Y-95890000D01*
X155618571Y-94532857D02*
X154118571Y-94532857D01*
X155547142Y-94532857D02*
X155618571Y-94675714D01*
X155618571Y-94961428D01*
X155547142Y-95104285D01*
X155475714Y-95175714D01*
X155332857Y-95247142D01*
X154904285Y-95247142D01*
X154761428Y-95175714D01*
X154690000Y-95104285D01*
X154618571Y-94961428D01*
X154618571Y-94675714D01*
X154690000Y-94532857D01*
D12*
%TO.P,R3,1*%
%TO.N,Net-(J3-Pad2)*%
X127730000Y-100965000D03*
%TO.P,R3,2*%
%TO.N,Net-(D3-Pad1)*%
X123730000Y-100965000D03*
%TD*%
D13*
%TO.P,J4,1,Pin_1*%
%TO.N,Net-(J3-Pad2)*%
X146290000Y-100310000D03*
%TO.P,J4,2,Pin_2*%
%TO.N,Net-(J4-Pad2)*%
X146290000Y-102850000D03*
%TO.P,J4,3,Pin_3*%
X146290000Y-105390000D03*
%TO.P,J4,4,Pin_4*%
%TO.N,Net-(J4-Pad4)*%
X146290000Y-107930000D03*
%TO.P,J4,5,Pin_5*%
X146290000Y-110470000D03*
%TD*%
D12*
%TO.P,R4,1*%
%TO.N,Net-(D4-Pad1)*%
X123730000Y-107315000D03*
%TO.P,R4,2*%
%TO.N,Net-(J3-Pad2)*%
X127730000Y-107315000D03*
%TD*%
%TO.P,D3,1,K*%
%TO.N,Net-(D3-Pad1)*%
X118840000Y-100965000D03*
%TO.P,D3,2,A*%
%TO.N,Net-(D3-Pad2)*%
X114840000Y-100965000D03*
%TD*%
%TO.P,D4,1,K*%
%TO.N,Net-(D4-Pad1)*%
X118840000Y-107315000D03*
%TO.P,D4,2,A*%
%TO.N,Net-(D4-Pad2)*%
X114840000Y-107315000D03*
%TD*%
D14*
%TO.P,J3,1,Pin_1*%
%TO.N,Net-(D3-Pad2)*%
X133340000Y-95010000D03*
%TO.P,J3,2,Pin_2*%
%TO.N,Net-(J3-Pad2)*%
X135880000Y-95010000D03*
%TO.P,J3,3,Pin_3*%
%TO.N,Net-(J3-Pad3)*%
X138420000Y-95010000D03*
%TD*%
D15*
%TO.P,U2,1,VCC*%
%TO.N,Net-(D3-Pad2)*%
X133415000Y-100330000D03*
%TO.P,U2,2,PA4*%
%TO.N,unconnected-(U2-Pad2)*%
X133415000Y-101600000D03*
%TO.P,U2,3,PA5*%
%TO.N,unconnected-(U2-Pad3)*%
X133415000Y-102870000D03*
%TO.P,U2,4,PA6/DAC*%
%TO.N,unconnected-(U2-Pad4)*%
X133415000Y-104140000D03*
%TO.P,U2,5,PA7*%
%TO.N,unconnected-(U2-Pad5)*%
X133415000Y-105410000D03*
%TO.P,U2,6,PB3/RXD*%
%TO.N,unconnected-(U2-Pad6)*%
X133415000Y-106680000D03*
%TO.P,U2,7,PB2/TXD*%
%TO.N,unconnected-(U2-Pad7)*%
X133415000Y-107950000D03*
%TO.P,U2,8,PB1/SDA*%
%TO.N,Net-(J4-Pad4)*%
X138365000Y-107950000D03*
%TO.P,U2,9,PB0/SCL*%
%TO.N,Net-(J4-Pad2)*%
X138365000Y-106680000D03*
%TO.P,U2,10,~{RESET}/UPDI/PA0*%
%TO.N,Net-(J3-Pad3)*%
X138365000Y-105410000D03*
%TO.P,U2,11,PA1*%
%TO.N,unconnected-(U2-Pad11)*%
X138365000Y-104140000D03*
%TO.P,U2,12,PA2*%
%TO.N,unconnected-(U2-Pad12)*%
X138365000Y-102870000D03*
%TO.P,U2,13,PA3/SCK*%
%TO.N,Net-(D4-Pad2)*%
X138365000Y-101600000D03*
%TO.P,U2,14,GND*%
%TO.N,Net-(J3-Pad2)*%
X138365000Y-100330000D03*
%TD*%
D13*
%TO.P,J5,1*%
%TO.N,unconnected-(J5-Pad1)*%
X146290000Y-115590000D03*
%TO.P,J5,2*%
%TO.N,unconnected-(J5-Pad2)*%
X146290000Y-118130000D03*
%TD*%
D16*
%TO.N,Net-(D3-Pad2)*%
X130810000Y-108585000D02*
X130810000Y-100965000D01*
X114840000Y-100965000D02*
X118015000Y-104140000D01*
X125730000Y-109220000D02*
X126365000Y-109855000D01*
X125730000Y-104140000D02*
X125730000Y-109220000D01*
X133415000Y-95085000D02*
X133340000Y-95010000D01*
X126365000Y-109855000D02*
X129540000Y-109855000D01*
X129540000Y-109855000D02*
X130810000Y-108585000D01*
X131445000Y-100330000D02*
X133415000Y-100330000D01*
X133415000Y-100330000D02*
X133415000Y-95085000D01*
X130810000Y-100965000D02*
X131445000Y-100330000D01*
X118015000Y-104140000D02*
X125730000Y-104140000D01*
%TO.N,Net-(D3-Pad1)*%
X118840000Y-100965000D02*
X123730000Y-100965000D01*
%TO.N,Net-(D4-Pad2)*%
X135890000Y-101600000D02*
X138365000Y-101600000D01*
X135255000Y-102235000D02*
X135890000Y-101600000D01*
X115570000Y-113030000D02*
X126365000Y-113030000D01*
X126365000Y-113030000D02*
X128270000Y-111125000D01*
X114840000Y-112300000D02*
X115570000Y-113030000D01*
X133350000Y-111125000D02*
X135255000Y-109220000D01*
X114840000Y-107315000D02*
X114840000Y-112300000D01*
X128270000Y-111125000D02*
X133350000Y-111125000D01*
X135255000Y-109220000D02*
X135255000Y-102235000D01*
%TO.N,Net-(D4-Pad1)*%
X118840000Y-107315000D02*
X123730000Y-107315000D01*
%TO.N,Net-(J3-Pad2)*%
X135255000Y-92075000D02*
X135890000Y-92710000D01*
X127730000Y-107315000D02*
X127730000Y-100965000D01*
X135880000Y-97845000D02*
X138365000Y-100330000D01*
X127730000Y-95155000D02*
X130810000Y-92075000D01*
X135890000Y-92710000D02*
X135880000Y-92720000D01*
X135880000Y-92720000D02*
X135880000Y-95010000D01*
X135880000Y-95010000D02*
X135880000Y-97845000D01*
X130810000Y-92075000D02*
X135255000Y-92075000D01*
X138365000Y-100330000D02*
X146290000Y-100330000D01*
X127730000Y-100965000D02*
X127730000Y-95155000D01*
%TO.N,Net-(J3-Pad3)*%
X137160000Y-109855000D02*
X136525000Y-109220000D01*
X136525000Y-109220000D02*
X136525000Y-106045000D01*
X144145000Y-113030000D02*
X140970000Y-109855000D01*
X147955000Y-113030000D02*
X144145000Y-113030000D01*
X136525000Y-106045000D02*
X137160000Y-105410000D01*
X138420000Y-95010000D02*
X145810000Y-95010000D01*
X137160000Y-105410000D02*
X138365000Y-105410000D01*
X149225000Y-111760000D02*
X147955000Y-113030000D01*
X145810000Y-95010000D02*
X149225000Y-98425000D01*
X149225000Y-98425000D02*
X149225000Y-111760000D01*
X140970000Y-109855000D02*
X137160000Y-109855000D01*
%TO.N,Net-(J4-Pad2)*%
X141135000Y-105410000D02*
X146290000Y-105410000D01*
X146290000Y-102870000D02*
X146290000Y-105410000D01*
X139865000Y-106680000D02*
X141135000Y-105410000D01*
X138365000Y-106680000D02*
X139865000Y-106680000D01*
%TO.N,Net-(J4-Pad4)*%
X146290000Y-107950000D02*
X138365000Y-107950000D01*
X146290000Y-107950000D02*
X146290000Y-110490000D01*
%TD*%
M02*
