%TF.GenerationSoftware,KiCad,Pcbnew,(6.0.2)*%
%TF.CreationDate,2022-12-05T07:17:16-05:00*%
%TF.ProjectId,Comms,436f6d6d-732e-46b6-9963-61645f706362,rev?*%
%TF.SameCoordinates,Original*%
%TF.FileFunction,Copper,L1,Top*%
%TF.FilePolarity,Positive*%
%FSLAX46Y46*%
G04 Gerber Fmt 4.6, Leading zero omitted, Abs format (unit mm)*
G04 Created by KiCad (PCBNEW (6.0.2)) date 2022-12-05 07:17:16*
%MOMM*%
%LPD*%
G01*
G04 APERTURE LIST*
%ADD10C,0.300000*%
%TA.AperFunction,NonConductor*%
%ADD11C,0.300000*%
%TD*%
%TA.AperFunction,SMDPad,CuDef*%
%ADD12R,2.000000X1.700000*%
%TD*%
%TA.AperFunction,SMDPad,CuDef*%
%ADD13R,2.500000X1.700000*%
%TD*%
%TA.AperFunction,SMDPad,CuDef*%
%ADD14R,2.000000X0.600000*%
%TD*%
%TA.AperFunction,SMDPad,CuDef*%
%ADD15R,1.700000X2.500000*%
%TD*%
%TA.AperFunction,Conductor*%
%ADD16C,0.500000*%
%TD*%
G04 APERTURE END LIST*
D10*
D11*
X199928571Y-85840000D02*
X200071428Y-85911428D01*
X200285714Y-85911428D01*
X200500000Y-85840000D01*
X200642857Y-85697142D01*
X200714285Y-85554285D01*
X200785714Y-85268571D01*
X200785714Y-85054285D01*
X200714285Y-84768571D01*
X200642857Y-84625714D01*
X200500000Y-84482857D01*
X200285714Y-84411428D01*
X200142857Y-84411428D01*
X199928571Y-84482857D01*
X199857142Y-84554285D01*
X199857142Y-85054285D01*
X200142857Y-85054285D01*
X199214285Y-84411428D02*
X199214285Y-85411428D01*
X199214285Y-85125714D02*
X199142857Y-85268571D01*
X199071428Y-85340000D01*
X198928571Y-85411428D01*
X198785714Y-85411428D01*
X198071428Y-84411428D02*
X198214285Y-84482857D01*
X198285714Y-84554285D01*
X198357142Y-84697142D01*
X198357142Y-85125714D01*
X198285714Y-85268571D01*
X198214285Y-85340000D01*
X198071428Y-85411428D01*
X197857142Y-85411428D01*
X197714285Y-85340000D01*
X197642857Y-85268571D01*
X197571428Y-85125714D01*
X197571428Y-84697142D01*
X197642857Y-84554285D01*
X197714285Y-84482857D01*
X197857142Y-84411428D01*
X198071428Y-84411428D01*
X196285714Y-85411428D02*
X196285714Y-84411428D01*
X196928571Y-85411428D02*
X196928571Y-84625714D01*
X196857142Y-84482857D01*
X196714285Y-84411428D01*
X196500000Y-84411428D01*
X196357142Y-84482857D01*
X196285714Y-84554285D01*
X195571428Y-85411428D02*
X195571428Y-84411428D01*
X195571428Y-85268571D02*
X195500000Y-85340000D01*
X195357142Y-85411428D01*
X195142857Y-85411428D01*
X195000000Y-85340000D01*
X194928571Y-85197142D01*
X194928571Y-84411428D01*
X193571428Y-84411428D02*
X193571428Y-85911428D01*
X193571428Y-84482857D02*
X193714285Y-84411428D01*
X194000000Y-84411428D01*
X194142857Y-84482857D01*
X194214285Y-84554285D01*
X194285714Y-84697142D01*
X194285714Y-85125714D01*
X194214285Y-85268571D01*
X194142857Y-85340000D01*
X194000000Y-85411428D01*
X193714285Y-85411428D01*
X193571428Y-85340000D01*
X192785714Y-84482857D02*
X192785714Y-84411428D01*
X192857142Y-84268571D01*
X192928571Y-84197142D01*
X191000000Y-85911428D02*
X191000000Y-84697142D01*
X190928571Y-84554285D01*
X190857142Y-84482857D01*
X190714285Y-84411428D01*
X190428571Y-84411428D01*
X190285714Y-84482857D01*
X190214285Y-84554285D01*
X190142857Y-84697142D01*
X190142857Y-85911428D01*
X189428571Y-84411428D02*
X189428571Y-85911428D01*
X188857142Y-85911428D01*
X188714285Y-85840000D01*
X188642857Y-85768571D01*
X188571428Y-85625714D01*
X188571428Y-85411428D01*
X188642857Y-85268571D01*
X188714285Y-85197142D01*
X188857142Y-85125714D01*
X189428571Y-85125714D01*
X187928571Y-84411428D02*
X187928571Y-85911428D01*
X187571428Y-85911428D01*
X187357142Y-85840000D01*
X187214285Y-85697142D01*
X187142857Y-85554285D01*
X187071428Y-85268571D01*
X187071428Y-85054285D01*
X187142857Y-84768571D01*
X187214285Y-84625714D01*
X187357142Y-84482857D01*
X187571428Y-84411428D01*
X187928571Y-84411428D01*
X186428571Y-84411428D02*
X186428571Y-85911428D01*
X185642857Y-84482857D02*
X185642857Y-84411428D01*
X185714285Y-84268571D01*
X185785714Y-84197142D01*
X184071428Y-85911428D02*
X183571428Y-84411428D01*
X183071428Y-85911428D01*
X181714285Y-84554285D02*
X181785714Y-84482857D01*
X182000000Y-84411428D01*
X182142857Y-84411428D01*
X182357142Y-84482857D01*
X182500000Y-84625714D01*
X182571428Y-84768571D01*
X182642857Y-85054285D01*
X182642857Y-85268571D01*
X182571428Y-85554285D01*
X182500000Y-85697142D01*
X182357142Y-85840000D01*
X182142857Y-85911428D01*
X182000000Y-85911428D01*
X181785714Y-85840000D01*
X181714285Y-85768571D01*
X180214285Y-84554285D02*
X180285714Y-84482857D01*
X180500000Y-84411428D01*
X180642857Y-84411428D01*
X180857142Y-84482857D01*
X181000000Y-84625714D01*
X181071428Y-84768571D01*
X181142857Y-85054285D01*
X181142857Y-85268571D01*
X181071428Y-85554285D01*
X181000000Y-85697142D01*
X180857142Y-85840000D01*
X180642857Y-85911428D01*
X180500000Y-85911428D01*
X180285714Y-85840000D01*
X180214285Y-85768571D01*
D10*
D11*
X169025714Y-99738571D02*
X169025714Y-98238571D01*
X169597142Y-98238571D01*
X169740000Y-98310000D01*
X169811428Y-98381428D01*
X169882857Y-98524285D01*
X169882857Y-98738571D01*
X169811428Y-98881428D01*
X169740000Y-98952857D01*
X169597142Y-99024285D01*
X169025714Y-99024285D01*
X170740000Y-99738571D02*
X170597142Y-99667142D01*
X170525714Y-99595714D01*
X170454285Y-99452857D01*
X170454285Y-99024285D01*
X170525714Y-98881428D01*
X170597142Y-98810000D01*
X170740000Y-98738571D01*
X170954285Y-98738571D01*
X171097142Y-98810000D01*
X171168571Y-98881428D01*
X171240000Y-99024285D01*
X171240000Y-99452857D01*
X171168571Y-99595714D01*
X171097142Y-99667142D01*
X170954285Y-99738571D01*
X170740000Y-99738571D01*
X171740000Y-98738571D02*
X172025714Y-99738571D01*
X172311428Y-99024285D01*
X172597142Y-99738571D01*
X172882857Y-98738571D01*
X174025714Y-99667142D02*
X173882857Y-99738571D01*
X173597142Y-99738571D01*
X173454285Y-99667142D01*
X173382857Y-99524285D01*
X173382857Y-98952857D01*
X173454285Y-98810000D01*
X173597142Y-98738571D01*
X173882857Y-98738571D01*
X174025714Y-98810000D01*
X174097142Y-98952857D01*
X174097142Y-99095714D01*
X173382857Y-99238571D01*
X174740000Y-99738571D02*
X174740000Y-98738571D01*
X174740000Y-99024285D02*
X174811428Y-98881428D01*
X174882857Y-98810000D01*
X175025714Y-98738571D01*
X175168571Y-98738571D01*
D10*
D11*
X115145714Y-98468571D02*
X115145714Y-96968571D01*
X115717142Y-96968571D01*
X115860000Y-97040000D01*
X115931428Y-97111428D01*
X116002857Y-97254285D01*
X116002857Y-97468571D01*
X115931428Y-97611428D01*
X115860000Y-97682857D01*
X115717142Y-97754285D01*
X115145714Y-97754285D01*
X116860000Y-98468571D02*
X116717142Y-98397142D01*
X116645714Y-98325714D01*
X116574285Y-98182857D01*
X116574285Y-97754285D01*
X116645714Y-97611428D01*
X116717142Y-97540000D01*
X116860000Y-97468571D01*
X117074285Y-97468571D01*
X117217142Y-97540000D01*
X117288571Y-97611428D01*
X117360000Y-97754285D01*
X117360000Y-98182857D01*
X117288571Y-98325714D01*
X117217142Y-98397142D01*
X117074285Y-98468571D01*
X116860000Y-98468571D01*
X117860000Y-97468571D02*
X118145714Y-98468571D01*
X118431428Y-97754285D01*
X118717142Y-98468571D01*
X119002857Y-97468571D01*
X120145714Y-98397142D02*
X120002857Y-98468571D01*
X119717142Y-98468571D01*
X119574285Y-98397142D01*
X119502857Y-98254285D01*
X119502857Y-97682857D01*
X119574285Y-97540000D01*
X119717142Y-97468571D01*
X120002857Y-97468571D01*
X120145714Y-97540000D01*
X120217142Y-97682857D01*
X120217142Y-97825714D01*
X119502857Y-97968571D01*
X120860000Y-98468571D02*
X120860000Y-97468571D01*
X120860000Y-97754285D02*
X120931428Y-97611428D01*
X121002857Y-97540000D01*
X121145714Y-97468571D01*
X121288571Y-97468571D01*
D10*
D11*
X145953571Y-87110000D02*
X146096428Y-87181428D01*
X146310714Y-87181428D01*
X146525000Y-87110000D01*
X146667857Y-86967142D01*
X146739285Y-86824285D01*
X146810714Y-86538571D01*
X146810714Y-86324285D01*
X146739285Y-86038571D01*
X146667857Y-85895714D01*
X146525000Y-85752857D01*
X146310714Y-85681428D01*
X146167857Y-85681428D01*
X145953571Y-85752857D01*
X145882142Y-85824285D01*
X145882142Y-86324285D01*
X146167857Y-86324285D01*
X145239285Y-85681428D02*
X145239285Y-86681428D01*
X145239285Y-86395714D02*
X145167857Y-86538571D01*
X145096428Y-86610000D01*
X144953571Y-86681428D01*
X144810714Y-86681428D01*
X144096428Y-85681428D02*
X144239285Y-85752857D01*
X144310714Y-85824285D01*
X144382142Y-85967142D01*
X144382142Y-86395714D01*
X144310714Y-86538571D01*
X144239285Y-86610000D01*
X144096428Y-86681428D01*
X143882142Y-86681428D01*
X143739285Y-86610000D01*
X143667857Y-86538571D01*
X143596428Y-86395714D01*
X143596428Y-85967142D01*
X143667857Y-85824285D01*
X143739285Y-85752857D01*
X143882142Y-85681428D01*
X144096428Y-85681428D01*
X142310714Y-86681428D02*
X142310714Y-85681428D01*
X142953571Y-86681428D02*
X142953571Y-85895714D01*
X142882142Y-85752857D01*
X142739285Y-85681428D01*
X142525000Y-85681428D01*
X142382142Y-85752857D01*
X142310714Y-85824285D01*
X141596428Y-86681428D02*
X141596428Y-85681428D01*
X141596428Y-86538571D02*
X141525000Y-86610000D01*
X141382142Y-86681428D01*
X141167857Y-86681428D01*
X141025000Y-86610000D01*
X140953571Y-86467142D01*
X140953571Y-85681428D01*
X139596428Y-85681428D02*
X139596428Y-87181428D01*
X139596428Y-85752857D02*
X139739285Y-85681428D01*
X140025000Y-85681428D01*
X140167857Y-85752857D01*
X140239285Y-85824285D01*
X140310714Y-85967142D01*
X140310714Y-86395714D01*
X140239285Y-86538571D01*
X140167857Y-86610000D01*
X140025000Y-86681428D01*
X139739285Y-86681428D01*
X139596428Y-86610000D01*
X138810714Y-85752857D02*
X138810714Y-85681428D01*
X138882142Y-85538571D01*
X138953571Y-85467142D01*
X137025000Y-87181428D02*
X137025000Y-85967142D01*
X136953571Y-85824285D01*
X136882142Y-85752857D01*
X136739285Y-85681428D01*
X136453571Y-85681428D01*
X136310714Y-85752857D01*
X136239285Y-85824285D01*
X136167857Y-85967142D01*
X136167857Y-87181428D01*
X135453571Y-85681428D02*
X135453571Y-87181428D01*
X134882142Y-87181428D01*
X134739285Y-87110000D01*
X134667857Y-87038571D01*
X134596428Y-86895714D01*
X134596428Y-86681428D01*
X134667857Y-86538571D01*
X134739285Y-86467142D01*
X134882142Y-86395714D01*
X135453571Y-86395714D01*
X133953571Y-85681428D02*
X133953571Y-87181428D01*
X133596428Y-87181428D01*
X133382142Y-87110000D01*
X133239285Y-86967142D01*
X133167857Y-86824285D01*
X133096428Y-86538571D01*
X133096428Y-86324285D01*
X133167857Y-86038571D01*
X133239285Y-85895714D01*
X133382142Y-85752857D01*
X133596428Y-85681428D01*
X133953571Y-85681428D01*
X132453571Y-85681428D02*
X132453571Y-87181428D01*
X131667857Y-85752857D02*
X131667857Y-85681428D01*
X131739285Y-85538571D01*
X131810714Y-85467142D01*
X130096428Y-87181428D02*
X129596428Y-85681428D01*
X129096428Y-87181428D01*
X127739285Y-85824285D02*
X127810714Y-85752857D01*
X128025000Y-85681428D01*
X128167857Y-85681428D01*
X128382142Y-85752857D01*
X128525000Y-85895714D01*
X128596428Y-86038571D01*
X128667857Y-86324285D01*
X128667857Y-86538571D01*
X128596428Y-86824285D01*
X128525000Y-86967142D01*
X128382142Y-87110000D01*
X128167857Y-87181428D01*
X128025000Y-87181428D01*
X127810714Y-87110000D01*
X127739285Y-87038571D01*
X126239285Y-85824285D02*
X126310714Y-85752857D01*
X126525000Y-85681428D01*
X126667857Y-85681428D01*
X126882142Y-85752857D01*
X127025000Y-85895714D01*
X127096428Y-86038571D01*
X127167857Y-86324285D01*
X127167857Y-86538571D01*
X127096428Y-86824285D01*
X127025000Y-86967142D01*
X126882142Y-87110000D01*
X126667857Y-87181428D01*
X126525000Y-87181428D01*
X126310714Y-87110000D01*
X126239285Y-87038571D01*
D10*
D11*
X155557142Y-74503571D02*
X155628571Y-74289285D01*
X155628571Y-73932142D01*
X155557142Y-73789285D01*
X155485714Y-73717857D01*
X155342857Y-73646428D01*
X155200000Y-73646428D01*
X155057142Y-73717857D01*
X154985714Y-73789285D01*
X154914285Y-73932142D01*
X154842857Y-74217857D01*
X154771428Y-74360714D01*
X154700000Y-74432142D01*
X154557142Y-74503571D01*
X154414285Y-74503571D01*
X154271428Y-74432142D01*
X154200000Y-74360714D01*
X154128571Y-74217857D01*
X154128571Y-73860714D01*
X154200000Y-73646428D01*
X155628571Y-73003571D02*
X154128571Y-73003571D01*
X154128571Y-72646428D01*
X154200000Y-72432142D01*
X154342857Y-72289285D01*
X154485714Y-72217857D01*
X154771428Y-72146428D01*
X154985714Y-72146428D01*
X155271428Y-72217857D01*
X155414285Y-72289285D01*
X155557142Y-72432142D01*
X155628571Y-72646428D01*
X155628571Y-73003571D01*
X155200000Y-71575000D02*
X155200000Y-70860714D01*
X155628571Y-71717857D02*
X154128571Y-71217857D01*
X155628571Y-70717857D01*
X155557142Y-70146428D02*
X155628571Y-70146428D01*
X155771428Y-70217857D01*
X155842857Y-70289285D01*
X155557142Y-68432142D02*
X155628571Y-68217857D01*
X155628571Y-67860714D01*
X155557142Y-67717857D01*
X155485714Y-67646428D01*
X155342857Y-67575000D01*
X155200000Y-67575000D01*
X155057142Y-67646428D01*
X154985714Y-67717857D01*
X154914285Y-67860714D01*
X154842857Y-68146428D01*
X154771428Y-68289285D01*
X154700000Y-68360714D01*
X154557142Y-68432142D01*
X154414285Y-68432142D01*
X154271428Y-68360714D01*
X154200000Y-68289285D01*
X154128571Y-68146428D01*
X154128571Y-67789285D01*
X154200000Y-67575000D01*
X155485714Y-66075000D02*
X155557142Y-66146428D01*
X155628571Y-66360714D01*
X155628571Y-66503571D01*
X155557142Y-66717857D01*
X155414285Y-66860714D01*
X155271428Y-66932142D01*
X154985714Y-67003571D01*
X154771428Y-67003571D01*
X154485714Y-66932142D01*
X154342857Y-66860714D01*
X154200000Y-66717857D01*
X154128571Y-66503571D01*
X154128571Y-66360714D01*
X154200000Y-66146428D01*
X154271428Y-66075000D01*
X155628571Y-64717857D02*
X155628571Y-65432142D01*
X154128571Y-65432142D01*
X155557142Y-64146428D02*
X155628571Y-64146428D01*
X155771428Y-64217857D01*
X155842857Y-64289285D01*
X154200000Y-61575000D02*
X154128571Y-61717857D01*
X154128571Y-61932142D01*
X154200000Y-62146428D01*
X154342857Y-62289285D01*
X154485714Y-62360714D01*
X154771428Y-62432142D01*
X154985714Y-62432142D01*
X155271428Y-62360714D01*
X155414285Y-62289285D01*
X155557142Y-62146428D01*
X155628571Y-61932142D01*
X155628571Y-61789285D01*
X155557142Y-61575000D01*
X155485714Y-61503571D01*
X154985714Y-61503571D01*
X154985714Y-61789285D01*
X155628571Y-60860714D02*
X154628571Y-60860714D01*
X154914285Y-60860714D02*
X154771428Y-60789285D01*
X154700000Y-60717857D01*
X154628571Y-60575000D01*
X154628571Y-60432142D01*
X155628571Y-59717857D02*
X155557142Y-59860714D01*
X155485714Y-59932142D01*
X155342857Y-60003571D01*
X154914285Y-60003571D01*
X154771428Y-59932142D01*
X154700000Y-59860714D01*
X154628571Y-59717857D01*
X154628571Y-59503571D01*
X154700000Y-59360714D01*
X154771428Y-59289285D01*
X154914285Y-59217857D01*
X155342857Y-59217857D01*
X155485714Y-59289285D01*
X155557142Y-59360714D01*
X155628571Y-59503571D01*
X155628571Y-59717857D01*
X154628571Y-57932142D02*
X155628571Y-57932142D01*
X154628571Y-58575000D02*
X155414285Y-58575000D01*
X155557142Y-58503571D01*
X155628571Y-58360714D01*
X155628571Y-58146428D01*
X155557142Y-58003571D01*
X155485714Y-57932142D01*
X154628571Y-57217857D02*
X155628571Y-57217857D01*
X154771428Y-57217857D02*
X154700000Y-57146428D01*
X154628571Y-57003571D01*
X154628571Y-56789285D01*
X154700000Y-56646428D01*
X154842857Y-56575000D01*
X155628571Y-56575000D01*
X155628571Y-55217857D02*
X154128571Y-55217857D01*
X155557142Y-55217857D02*
X155628571Y-55360714D01*
X155628571Y-55646428D01*
X155557142Y-55789285D01*
X155485714Y-55860714D01*
X155342857Y-55932142D01*
X154914285Y-55932142D01*
X154771428Y-55860714D01*
X154700000Y-55789285D01*
X154628571Y-55646428D01*
X154628571Y-55360714D01*
X154700000Y-55217857D01*
D10*
D11*
X207617142Y-112548571D02*
X207688571Y-112334285D01*
X207688571Y-111977142D01*
X207617142Y-111834285D01*
X207545714Y-111762857D01*
X207402857Y-111691428D01*
X207260000Y-111691428D01*
X207117142Y-111762857D01*
X207045714Y-111834285D01*
X206974285Y-111977142D01*
X206902857Y-112262857D01*
X206831428Y-112405714D01*
X206760000Y-112477142D01*
X206617142Y-112548571D01*
X206474285Y-112548571D01*
X206331428Y-112477142D01*
X206260000Y-112405714D01*
X206188571Y-112262857D01*
X206188571Y-111905714D01*
X206260000Y-111691428D01*
X207688571Y-111048571D02*
X206188571Y-111048571D01*
X206188571Y-110691428D01*
X206260000Y-110477142D01*
X206402857Y-110334285D01*
X206545714Y-110262857D01*
X206831428Y-110191428D01*
X207045714Y-110191428D01*
X207331428Y-110262857D01*
X207474285Y-110334285D01*
X207617142Y-110477142D01*
X207688571Y-110691428D01*
X207688571Y-111048571D01*
X207260000Y-109620000D02*
X207260000Y-108905714D01*
X207688571Y-109762857D02*
X206188571Y-109262857D01*
X207688571Y-108762857D01*
X207617142Y-108191428D02*
X207688571Y-108191428D01*
X207831428Y-108262857D01*
X207902857Y-108334285D01*
X207617142Y-106477142D02*
X207688571Y-106262857D01*
X207688571Y-105905714D01*
X207617142Y-105762857D01*
X207545714Y-105691428D01*
X207402857Y-105620000D01*
X207260000Y-105620000D01*
X207117142Y-105691428D01*
X207045714Y-105762857D01*
X206974285Y-105905714D01*
X206902857Y-106191428D01*
X206831428Y-106334285D01*
X206760000Y-106405714D01*
X206617142Y-106477142D01*
X206474285Y-106477142D01*
X206331428Y-106405714D01*
X206260000Y-106334285D01*
X206188571Y-106191428D01*
X206188571Y-105834285D01*
X206260000Y-105620000D01*
X207545714Y-104120000D02*
X207617142Y-104191428D01*
X207688571Y-104405714D01*
X207688571Y-104548571D01*
X207617142Y-104762857D01*
X207474285Y-104905714D01*
X207331428Y-104977142D01*
X207045714Y-105048571D01*
X206831428Y-105048571D01*
X206545714Y-104977142D01*
X206402857Y-104905714D01*
X206260000Y-104762857D01*
X206188571Y-104548571D01*
X206188571Y-104405714D01*
X206260000Y-104191428D01*
X206331428Y-104120000D01*
X207688571Y-102762857D02*
X207688571Y-103477142D01*
X206188571Y-103477142D01*
X207617142Y-102191428D02*
X207688571Y-102191428D01*
X207831428Y-102262857D01*
X207902857Y-102334285D01*
X206260000Y-99620000D02*
X206188571Y-99762857D01*
X206188571Y-99977142D01*
X206260000Y-100191428D01*
X206402857Y-100334285D01*
X206545714Y-100405714D01*
X206831428Y-100477142D01*
X207045714Y-100477142D01*
X207331428Y-100405714D01*
X207474285Y-100334285D01*
X207617142Y-100191428D01*
X207688571Y-99977142D01*
X207688571Y-99834285D01*
X207617142Y-99620000D01*
X207545714Y-99548571D01*
X207045714Y-99548571D01*
X207045714Y-99834285D01*
X207688571Y-98905714D02*
X206688571Y-98905714D01*
X206974285Y-98905714D02*
X206831428Y-98834285D01*
X206760000Y-98762857D01*
X206688571Y-98620000D01*
X206688571Y-98477142D01*
X207688571Y-97762857D02*
X207617142Y-97905714D01*
X207545714Y-97977142D01*
X207402857Y-98048571D01*
X206974285Y-98048571D01*
X206831428Y-97977142D01*
X206760000Y-97905714D01*
X206688571Y-97762857D01*
X206688571Y-97548571D01*
X206760000Y-97405714D01*
X206831428Y-97334285D01*
X206974285Y-97262857D01*
X207402857Y-97262857D01*
X207545714Y-97334285D01*
X207617142Y-97405714D01*
X207688571Y-97548571D01*
X207688571Y-97762857D01*
X206688571Y-95977142D02*
X207688571Y-95977142D01*
X206688571Y-96620000D02*
X207474285Y-96620000D01*
X207617142Y-96548571D01*
X207688571Y-96405714D01*
X207688571Y-96191428D01*
X207617142Y-96048571D01*
X207545714Y-95977142D01*
X206688571Y-95262857D02*
X207688571Y-95262857D01*
X206831428Y-95262857D02*
X206760000Y-95191428D01*
X206688571Y-95048571D01*
X206688571Y-94834285D01*
X206760000Y-94691428D01*
X206902857Y-94620000D01*
X207688571Y-94620000D01*
X207688571Y-93262857D02*
X206188571Y-93262857D01*
X207617142Y-93262857D02*
X207688571Y-93405714D01*
X207688571Y-93691428D01*
X207617142Y-93834285D01*
X207545714Y-93905714D01*
X207402857Y-93977142D01*
X206974285Y-93977142D01*
X206831428Y-93905714D01*
X206760000Y-93834285D01*
X206688571Y-93691428D01*
X206688571Y-93405714D01*
X206760000Y-93262857D01*
D10*
D11*
X113020714Y-88689523D02*
X113020714Y-84689523D01*
X114354047Y-87546666D01*
X115687380Y-84689523D01*
X115687380Y-88689523D01*
X119306428Y-88689523D02*
X119306428Y-86594285D01*
X119115952Y-86213333D01*
X118735000Y-86022857D01*
X117973095Y-86022857D01*
X117592142Y-86213333D01*
X119306428Y-88499047D02*
X118925476Y-88689523D01*
X117973095Y-88689523D01*
X117592142Y-88499047D01*
X117401666Y-88118095D01*
X117401666Y-87737142D01*
X117592142Y-87356190D01*
X117973095Y-87165714D01*
X118925476Y-87165714D01*
X119306428Y-86975238D01*
X121020714Y-88499047D02*
X121401666Y-88689523D01*
X122163571Y-88689523D01*
X122544523Y-88499047D01*
X122735000Y-88118095D01*
X122735000Y-87927619D01*
X122544523Y-87546666D01*
X122163571Y-87356190D01*
X121592142Y-87356190D01*
X121211190Y-87165714D01*
X121020714Y-86784761D01*
X121020714Y-86594285D01*
X121211190Y-86213333D01*
X121592142Y-86022857D01*
X122163571Y-86022857D01*
X122544523Y-86213333D01*
X124449285Y-88308571D02*
X124639761Y-88499047D01*
X124449285Y-88689523D01*
X124258809Y-88499047D01*
X124449285Y-88308571D01*
X124449285Y-88689523D01*
D10*
D11*
X168307142Y-90582857D02*
X171164285Y-90582857D01*
X169450000Y-88868571D02*
X168307142Y-94011428D01*
X170783333Y-92297142D02*
X167926190Y-92297142D01*
X169640476Y-94011428D02*
X170783333Y-88868571D01*
X174592857Y-93249523D02*
X172307142Y-93249523D01*
X173450000Y-93249523D02*
X173450000Y-89249523D01*
X173069047Y-89820952D01*
X172688095Y-90201904D01*
X172307142Y-90392380D01*
D10*
D11*
X147868571Y-47795000D02*
X148011428Y-47866428D01*
X148225714Y-47866428D01*
X148440000Y-47795000D01*
X148582857Y-47652142D01*
X148654285Y-47509285D01*
X148725714Y-47223571D01*
X148725714Y-47009285D01*
X148654285Y-46723571D01*
X148582857Y-46580714D01*
X148440000Y-46437857D01*
X148225714Y-46366428D01*
X148082857Y-46366428D01*
X147868571Y-46437857D01*
X147797142Y-46509285D01*
X147797142Y-47009285D01*
X148082857Y-47009285D01*
X147154285Y-46366428D02*
X147154285Y-47366428D01*
X147154285Y-47080714D02*
X147082857Y-47223571D01*
X147011428Y-47295000D01*
X146868571Y-47366428D01*
X146725714Y-47366428D01*
X146011428Y-46366428D02*
X146154285Y-46437857D01*
X146225714Y-46509285D01*
X146297142Y-46652142D01*
X146297142Y-47080714D01*
X146225714Y-47223571D01*
X146154285Y-47295000D01*
X146011428Y-47366428D01*
X145797142Y-47366428D01*
X145654285Y-47295000D01*
X145582857Y-47223571D01*
X145511428Y-47080714D01*
X145511428Y-46652142D01*
X145582857Y-46509285D01*
X145654285Y-46437857D01*
X145797142Y-46366428D01*
X146011428Y-46366428D01*
X144225714Y-47366428D02*
X144225714Y-46366428D01*
X144868571Y-47366428D02*
X144868571Y-46580714D01*
X144797142Y-46437857D01*
X144654285Y-46366428D01*
X144440000Y-46366428D01*
X144297142Y-46437857D01*
X144225714Y-46509285D01*
X143511428Y-47366428D02*
X143511428Y-46366428D01*
X143511428Y-47223571D02*
X143440000Y-47295000D01*
X143297142Y-47366428D01*
X143082857Y-47366428D01*
X142940000Y-47295000D01*
X142868571Y-47152142D01*
X142868571Y-46366428D01*
X141511428Y-46366428D02*
X141511428Y-47866428D01*
X141511428Y-46437857D02*
X141654285Y-46366428D01*
X141940000Y-46366428D01*
X142082857Y-46437857D01*
X142154285Y-46509285D01*
X142225714Y-46652142D01*
X142225714Y-47080714D01*
X142154285Y-47223571D01*
X142082857Y-47295000D01*
X141940000Y-47366428D01*
X141654285Y-47366428D01*
X141511428Y-47295000D01*
X140725714Y-46437857D02*
X140725714Y-46366428D01*
X140797142Y-46223571D01*
X140868571Y-46152142D01*
X138940000Y-47866428D02*
X138940000Y-46652142D01*
X138868571Y-46509285D01*
X138797142Y-46437857D01*
X138654285Y-46366428D01*
X138368571Y-46366428D01*
X138225714Y-46437857D01*
X138154285Y-46509285D01*
X138082857Y-46652142D01*
X138082857Y-47866428D01*
X137368571Y-46366428D02*
X137368571Y-47866428D01*
X136797142Y-47866428D01*
X136654285Y-47795000D01*
X136582857Y-47723571D01*
X136511428Y-47580714D01*
X136511428Y-47366428D01*
X136582857Y-47223571D01*
X136654285Y-47152142D01*
X136797142Y-47080714D01*
X137368571Y-47080714D01*
X135868571Y-46366428D02*
X135868571Y-47866428D01*
X135511428Y-47866428D01*
X135297142Y-47795000D01*
X135154285Y-47652142D01*
X135082857Y-47509285D01*
X135011428Y-47223571D01*
X135011428Y-47009285D01*
X135082857Y-46723571D01*
X135154285Y-46580714D01*
X135297142Y-46437857D01*
X135511428Y-46366428D01*
X135868571Y-46366428D01*
X134368571Y-46366428D02*
X134368571Y-47866428D01*
X133582857Y-46437857D02*
X133582857Y-46366428D01*
X133654285Y-46223571D01*
X133725714Y-46152142D01*
X132011428Y-47866428D02*
X131511428Y-46366428D01*
X131011428Y-47866428D01*
X129654285Y-46509285D02*
X129725714Y-46437857D01*
X129940000Y-46366428D01*
X130082857Y-46366428D01*
X130297142Y-46437857D01*
X130440000Y-46580714D01*
X130511428Y-46723571D01*
X130582857Y-47009285D01*
X130582857Y-47223571D01*
X130511428Y-47509285D01*
X130440000Y-47652142D01*
X130297142Y-47795000D01*
X130082857Y-47866428D01*
X129940000Y-47866428D01*
X129725714Y-47795000D01*
X129654285Y-47723571D01*
X128154285Y-46509285D02*
X128225714Y-46437857D01*
X128440000Y-46366428D01*
X128582857Y-46366428D01*
X128797142Y-46437857D01*
X128940000Y-46580714D01*
X129011428Y-46723571D01*
X129082857Y-47009285D01*
X129082857Y-47223571D01*
X129011428Y-47509285D01*
X128940000Y-47652142D01*
X128797142Y-47795000D01*
X128582857Y-47866428D01*
X128440000Y-47866428D01*
X128225714Y-47795000D01*
X128154285Y-47723571D01*
D10*
D11*
X116858571Y-71853571D02*
X116858571Y-70353571D01*
X117215714Y-70353571D01*
X117430000Y-70425000D01*
X117572857Y-70567857D01*
X117644285Y-70710714D01*
X117715714Y-70996428D01*
X117715714Y-71210714D01*
X117644285Y-71496428D01*
X117572857Y-71639285D01*
X117430000Y-71782142D01*
X117215714Y-71853571D01*
X116858571Y-71853571D01*
X118930000Y-71782142D02*
X118787142Y-71853571D01*
X118501428Y-71853571D01*
X118358571Y-71782142D01*
X118287142Y-71639285D01*
X118287142Y-71067857D01*
X118358571Y-70925000D01*
X118501428Y-70853571D01*
X118787142Y-70853571D01*
X118930000Y-70925000D01*
X119001428Y-71067857D01*
X119001428Y-71210714D01*
X118287142Y-71353571D01*
X119644285Y-71853571D02*
X119644285Y-70353571D01*
X119644285Y-70925000D02*
X119787142Y-70853571D01*
X120072857Y-70853571D01*
X120215714Y-70925000D01*
X120287142Y-70996428D01*
X120358571Y-71139285D01*
X120358571Y-71567857D01*
X120287142Y-71710714D01*
X120215714Y-71782142D01*
X120072857Y-71853571D01*
X119787142Y-71853571D01*
X119644285Y-71782142D01*
X121644285Y-70853571D02*
X121644285Y-71853571D01*
X121001428Y-70853571D02*
X121001428Y-71639285D01*
X121072857Y-71782142D01*
X121215714Y-71853571D01*
X121430000Y-71853571D01*
X121572857Y-71782142D01*
X121644285Y-71710714D01*
X123001428Y-70853571D02*
X123001428Y-72067857D01*
X122930000Y-72210714D01*
X122858571Y-72282142D01*
X122715714Y-72353571D01*
X122501428Y-72353571D01*
X122358571Y-72282142D01*
X123001428Y-71782142D02*
X122858571Y-71853571D01*
X122572857Y-71853571D01*
X122430000Y-71782142D01*
X122358571Y-71710714D01*
X122287142Y-71567857D01*
X122287142Y-71139285D01*
X122358571Y-70996428D01*
X122430000Y-70925000D01*
X122572857Y-70853571D01*
X122858571Y-70853571D01*
X123001428Y-70925000D01*
D10*
D11*
X116247142Y-52537857D02*
X119104285Y-52537857D01*
X117390000Y-50823571D02*
X116247142Y-55966428D01*
X118723333Y-54252142D02*
X115866190Y-54252142D01*
X117580476Y-55966428D02*
X118723333Y-50823571D01*
X120247142Y-51585476D02*
X120437619Y-51395000D01*
X120818571Y-51204523D01*
X121770952Y-51204523D01*
X122151904Y-51395000D01*
X122342380Y-51585476D01*
X122532857Y-51966428D01*
X122532857Y-52347380D01*
X122342380Y-52918809D01*
X120056666Y-55204523D01*
X122532857Y-55204523D01*
D10*
D11*
X114977380Y-49299047D02*
X115548809Y-49489523D01*
X116501190Y-49489523D01*
X116882142Y-49299047D01*
X117072619Y-49108571D01*
X117263095Y-48727619D01*
X117263095Y-48346666D01*
X117072619Y-47965714D01*
X116882142Y-47775238D01*
X116501190Y-47584761D01*
X115739285Y-47394285D01*
X115358333Y-47203809D01*
X115167857Y-47013333D01*
X114977380Y-46632380D01*
X114977380Y-46251428D01*
X115167857Y-45870476D01*
X115358333Y-45680000D01*
X115739285Y-45489523D01*
X116691666Y-45489523D01*
X117263095Y-45680000D01*
X118405952Y-46822857D02*
X119929761Y-46822857D01*
X118977380Y-45489523D02*
X118977380Y-48918095D01*
X119167857Y-49299047D01*
X119548809Y-49489523D01*
X119929761Y-49489523D01*
X122977380Y-46822857D02*
X122977380Y-49489523D01*
X121263095Y-46822857D02*
X121263095Y-48918095D01*
X121453571Y-49299047D01*
X121834523Y-49489523D01*
X122405952Y-49489523D01*
X122786904Y-49299047D01*
X122977380Y-49108571D01*
X124882142Y-49108571D02*
X125072619Y-49299047D01*
X124882142Y-49489523D01*
X124691666Y-49299047D01*
X124882142Y-49108571D01*
X124882142Y-49489523D01*
D10*
D11*
X116308571Y-111168571D02*
X116308571Y-109668571D01*
X116665714Y-109668571D01*
X116880000Y-109740000D01*
X117022857Y-109882857D01*
X117094285Y-110025714D01*
X117165714Y-110311428D01*
X117165714Y-110525714D01*
X117094285Y-110811428D01*
X117022857Y-110954285D01*
X116880000Y-111097142D01*
X116665714Y-111168571D01*
X116308571Y-111168571D01*
X118380000Y-111097142D02*
X118237142Y-111168571D01*
X117951428Y-111168571D01*
X117808571Y-111097142D01*
X117737142Y-110954285D01*
X117737142Y-110382857D01*
X117808571Y-110240000D01*
X117951428Y-110168571D01*
X118237142Y-110168571D01*
X118380000Y-110240000D01*
X118451428Y-110382857D01*
X118451428Y-110525714D01*
X117737142Y-110668571D01*
X119094285Y-111168571D02*
X119094285Y-109668571D01*
X119094285Y-110240000D02*
X119237142Y-110168571D01*
X119522857Y-110168571D01*
X119665714Y-110240000D01*
X119737142Y-110311428D01*
X119808571Y-110454285D01*
X119808571Y-110882857D01*
X119737142Y-111025714D01*
X119665714Y-111097142D01*
X119522857Y-111168571D01*
X119237142Y-111168571D01*
X119094285Y-111097142D01*
X121094285Y-110168571D02*
X121094285Y-111168571D01*
X120451428Y-110168571D02*
X120451428Y-110954285D01*
X120522857Y-111097142D01*
X120665714Y-111168571D01*
X120880000Y-111168571D01*
X121022857Y-111097142D01*
X121094285Y-111025714D01*
X122451428Y-110168571D02*
X122451428Y-111382857D01*
X122380000Y-111525714D01*
X122308571Y-111597142D01*
X122165714Y-111668571D01*
X121951428Y-111668571D01*
X121808571Y-111597142D01*
X122451428Y-111097142D02*
X122308571Y-111168571D01*
X122022857Y-111168571D01*
X121880000Y-111097142D01*
X121808571Y-111025714D01*
X121737142Y-110882857D01*
X121737142Y-110454285D01*
X121808571Y-110311428D01*
X121880000Y-110240000D01*
X122022857Y-110168571D01*
X122308571Y-110168571D01*
X122451428Y-110240000D01*
D10*
D11*
X155547142Y-113818571D02*
X155618571Y-113604285D01*
X155618571Y-113247142D01*
X155547142Y-113104285D01*
X155475714Y-113032857D01*
X155332857Y-112961428D01*
X155190000Y-112961428D01*
X155047142Y-113032857D01*
X154975714Y-113104285D01*
X154904285Y-113247142D01*
X154832857Y-113532857D01*
X154761428Y-113675714D01*
X154690000Y-113747142D01*
X154547142Y-113818571D01*
X154404285Y-113818571D01*
X154261428Y-113747142D01*
X154190000Y-113675714D01*
X154118571Y-113532857D01*
X154118571Y-113175714D01*
X154190000Y-112961428D01*
X155618571Y-112318571D02*
X154118571Y-112318571D01*
X154118571Y-111961428D01*
X154190000Y-111747142D01*
X154332857Y-111604285D01*
X154475714Y-111532857D01*
X154761428Y-111461428D01*
X154975714Y-111461428D01*
X155261428Y-111532857D01*
X155404285Y-111604285D01*
X155547142Y-111747142D01*
X155618571Y-111961428D01*
X155618571Y-112318571D01*
X155190000Y-110890000D02*
X155190000Y-110175714D01*
X155618571Y-111032857D02*
X154118571Y-110532857D01*
X155618571Y-110032857D01*
X155547142Y-109461428D02*
X155618571Y-109461428D01*
X155761428Y-109532857D01*
X155832857Y-109604285D01*
X155547142Y-107747142D02*
X155618571Y-107532857D01*
X155618571Y-107175714D01*
X155547142Y-107032857D01*
X155475714Y-106961428D01*
X155332857Y-106890000D01*
X155190000Y-106890000D01*
X155047142Y-106961428D01*
X154975714Y-107032857D01*
X154904285Y-107175714D01*
X154832857Y-107461428D01*
X154761428Y-107604285D01*
X154690000Y-107675714D01*
X154547142Y-107747142D01*
X154404285Y-107747142D01*
X154261428Y-107675714D01*
X154190000Y-107604285D01*
X154118571Y-107461428D01*
X154118571Y-107104285D01*
X154190000Y-106890000D01*
X155475714Y-105390000D02*
X155547142Y-105461428D01*
X155618571Y-105675714D01*
X155618571Y-105818571D01*
X155547142Y-106032857D01*
X155404285Y-106175714D01*
X155261428Y-106247142D01*
X154975714Y-106318571D01*
X154761428Y-106318571D01*
X154475714Y-106247142D01*
X154332857Y-106175714D01*
X154190000Y-106032857D01*
X154118571Y-105818571D01*
X154118571Y-105675714D01*
X154190000Y-105461428D01*
X154261428Y-105390000D01*
X155618571Y-104032857D02*
X155618571Y-104747142D01*
X154118571Y-104747142D01*
X155547142Y-103461428D02*
X155618571Y-103461428D01*
X155761428Y-103532857D01*
X155832857Y-103604285D01*
X154190000Y-100890000D02*
X154118571Y-101032857D01*
X154118571Y-101247142D01*
X154190000Y-101461428D01*
X154332857Y-101604285D01*
X154475714Y-101675714D01*
X154761428Y-101747142D01*
X154975714Y-101747142D01*
X155261428Y-101675714D01*
X155404285Y-101604285D01*
X155547142Y-101461428D01*
X155618571Y-101247142D01*
X155618571Y-101104285D01*
X155547142Y-100890000D01*
X155475714Y-100818571D01*
X154975714Y-100818571D01*
X154975714Y-101104285D01*
X155618571Y-100175714D02*
X154618571Y-100175714D01*
X154904285Y-100175714D02*
X154761428Y-100104285D01*
X154690000Y-100032857D01*
X154618571Y-99890000D01*
X154618571Y-99747142D01*
X155618571Y-99032857D02*
X155547142Y-99175714D01*
X155475714Y-99247142D01*
X155332857Y-99318571D01*
X154904285Y-99318571D01*
X154761428Y-99247142D01*
X154690000Y-99175714D01*
X154618571Y-99032857D01*
X154618571Y-98818571D01*
X154690000Y-98675714D01*
X154761428Y-98604285D01*
X154904285Y-98532857D01*
X155332857Y-98532857D01*
X155475714Y-98604285D01*
X155547142Y-98675714D01*
X155618571Y-98818571D01*
X155618571Y-99032857D01*
X154618571Y-97247142D02*
X155618571Y-97247142D01*
X154618571Y-97890000D02*
X155404285Y-97890000D01*
X155547142Y-97818571D01*
X155618571Y-97675714D01*
X155618571Y-97461428D01*
X155547142Y-97318571D01*
X155475714Y-97247142D01*
X154618571Y-96532857D02*
X155618571Y-96532857D01*
X154761428Y-96532857D02*
X154690000Y-96461428D01*
X154618571Y-96318571D01*
X154618571Y-96104285D01*
X154690000Y-95961428D01*
X154832857Y-95890000D01*
X155618571Y-95890000D01*
X155618571Y-94532857D02*
X154118571Y-94532857D01*
X155547142Y-94532857D02*
X155618571Y-94675714D01*
X155618571Y-94961428D01*
X155547142Y-95104285D01*
X155475714Y-95175714D01*
X155332857Y-95247142D01*
X154904285Y-95247142D01*
X154761428Y-95175714D01*
X154690000Y-95104285D01*
X154618571Y-94961428D01*
X154618571Y-94675714D01*
X154690000Y-94532857D01*
D10*
D11*
X167037380Y-87344047D02*
X167608809Y-87534523D01*
X168561190Y-87534523D01*
X168942142Y-87344047D01*
X169132619Y-87153571D01*
X169323095Y-86772619D01*
X169323095Y-86391666D01*
X169132619Y-86010714D01*
X168942142Y-85820238D01*
X168561190Y-85629761D01*
X167799285Y-85439285D01*
X167418333Y-85248809D01*
X167227857Y-85058333D01*
X167037380Y-84677380D01*
X167037380Y-84296428D01*
X167227857Y-83915476D01*
X167418333Y-83725000D01*
X167799285Y-83534523D01*
X168751666Y-83534523D01*
X169323095Y-83725000D01*
X170465952Y-84867857D02*
X171989761Y-84867857D01*
X171037380Y-83534523D02*
X171037380Y-86963095D01*
X171227857Y-87344047D01*
X171608809Y-87534523D01*
X171989761Y-87534523D01*
X175037380Y-84867857D02*
X175037380Y-87534523D01*
X173323095Y-84867857D02*
X173323095Y-86963095D01*
X173513571Y-87344047D01*
X173894523Y-87534523D01*
X174465952Y-87534523D01*
X174846904Y-87344047D01*
X175037380Y-87153571D01*
X176942142Y-87153571D02*
X177132619Y-87344047D01*
X176942142Y-87534523D01*
X176751666Y-87344047D01*
X176942142Y-87153571D01*
X176942142Y-87534523D01*
D10*
D11*
X168918571Y-109898571D02*
X168918571Y-108398571D01*
X169275714Y-108398571D01*
X169490000Y-108470000D01*
X169632857Y-108612857D01*
X169704285Y-108755714D01*
X169775714Y-109041428D01*
X169775714Y-109255714D01*
X169704285Y-109541428D01*
X169632857Y-109684285D01*
X169490000Y-109827142D01*
X169275714Y-109898571D01*
X168918571Y-109898571D01*
X170990000Y-109827142D02*
X170847142Y-109898571D01*
X170561428Y-109898571D01*
X170418571Y-109827142D01*
X170347142Y-109684285D01*
X170347142Y-109112857D01*
X170418571Y-108970000D01*
X170561428Y-108898571D01*
X170847142Y-108898571D01*
X170990000Y-108970000D01*
X171061428Y-109112857D01*
X171061428Y-109255714D01*
X170347142Y-109398571D01*
X171704285Y-109898571D02*
X171704285Y-108398571D01*
X171704285Y-108970000D02*
X171847142Y-108898571D01*
X172132857Y-108898571D01*
X172275714Y-108970000D01*
X172347142Y-109041428D01*
X172418571Y-109184285D01*
X172418571Y-109612857D01*
X172347142Y-109755714D01*
X172275714Y-109827142D01*
X172132857Y-109898571D01*
X171847142Y-109898571D01*
X171704285Y-109827142D01*
X173704285Y-108898571D02*
X173704285Y-109898571D01*
X173061428Y-108898571D02*
X173061428Y-109684285D01*
X173132857Y-109827142D01*
X173275714Y-109898571D01*
X173490000Y-109898571D01*
X173632857Y-109827142D01*
X173704285Y-109755714D01*
X175061428Y-108898571D02*
X175061428Y-110112857D01*
X174990000Y-110255714D01*
X174918571Y-110327142D01*
X174775714Y-110398571D01*
X174561428Y-110398571D01*
X174418571Y-110327142D01*
X175061428Y-109827142D02*
X174918571Y-109898571D01*
X174632857Y-109898571D01*
X174490000Y-109827142D01*
X174418571Y-109755714D01*
X174347142Y-109612857D01*
X174347142Y-109184285D01*
X174418571Y-109041428D01*
X174490000Y-108970000D01*
X174632857Y-108898571D01*
X174918571Y-108898571D01*
X175061428Y-108970000D01*
D10*
D11*
X116965714Y-61693571D02*
X116965714Y-60193571D01*
X117537142Y-60193571D01*
X117680000Y-60265000D01*
X117751428Y-60336428D01*
X117822857Y-60479285D01*
X117822857Y-60693571D01*
X117751428Y-60836428D01*
X117680000Y-60907857D01*
X117537142Y-60979285D01*
X116965714Y-60979285D01*
X118680000Y-61693571D02*
X118537142Y-61622142D01*
X118465714Y-61550714D01*
X118394285Y-61407857D01*
X118394285Y-60979285D01*
X118465714Y-60836428D01*
X118537142Y-60765000D01*
X118680000Y-60693571D01*
X118894285Y-60693571D01*
X119037142Y-60765000D01*
X119108571Y-60836428D01*
X119180000Y-60979285D01*
X119180000Y-61407857D01*
X119108571Y-61550714D01*
X119037142Y-61622142D01*
X118894285Y-61693571D01*
X118680000Y-61693571D01*
X119680000Y-60693571D02*
X119965714Y-61693571D01*
X120251428Y-60979285D01*
X120537142Y-61693571D01*
X120822857Y-60693571D01*
X121965714Y-61622142D02*
X121822857Y-61693571D01*
X121537142Y-61693571D01*
X121394285Y-61622142D01*
X121322857Y-61479285D01*
X121322857Y-60907857D01*
X121394285Y-60765000D01*
X121537142Y-60693571D01*
X121822857Y-60693571D01*
X121965714Y-60765000D01*
X122037142Y-60907857D01*
X122037142Y-61050714D01*
X121322857Y-61193571D01*
X122680000Y-61693571D02*
X122680000Y-60693571D01*
X122680000Y-60979285D02*
X122751428Y-60836428D01*
X122822857Y-60765000D01*
X122965714Y-60693571D01*
X123108571Y-60693571D01*
D12*
%TO.P,R3,1*%
%TO.N,Net-(J3-Pad2)*%
X127730000Y-100965000D03*
%TO.P,R3,2*%
%TO.N,Net-(D3-Pad1)*%
X123730000Y-100965000D03*
%TD*%
%TO.P,R1,1*%
%TO.N,Net-(J1-Pad2)*%
X181610000Y-101600000D03*
%TO.P,R1,2*%
%TO.N,Net-(D1-Pad1)*%
X177610000Y-101600000D03*
%TD*%
D13*
%TO.P,J4,1,Pin_1*%
%TO.N,Net-(J3-Pad2)*%
X146290000Y-97790000D03*
%TO.P,J4,2,Pin_2*%
X146290000Y-100330000D03*
%TO.P,J4,3,Pin_3*%
%TO.N,Net-(J4-Pad3)*%
X146290000Y-102870000D03*
%TO.P,J4,4,Pin_4*%
X146290000Y-105410000D03*
%TO.P,J4,5,Pin_5*%
%TO.N,Net-(J4-Pad5)*%
X146290000Y-107950000D03*
%TO.P,J4,6,Pin_6*%
X146290000Y-110490000D03*
%TD*%
D12*
%TO.P,R2,1*%
%TO.N,Net-(D2-Pad1)*%
X125550000Y-68635000D03*
%TO.P,R2,2*%
%TO.N,Net-(J1-Pad2)*%
X129550000Y-68635000D03*
%TD*%
D13*
%TO.P,J2,1,Pin_1*%
%TO.N,Net-(J1-Pad2)*%
X146300000Y-63545000D03*
%TO.P,J2,2,Pin_2*%
%TO.N,Net-(J2-Pad2)*%
X146300000Y-66085000D03*
%TO.P,J2,3,Pin_3*%
%TO.N,Net-(J2-Pad3)*%
X146300000Y-68625000D03*
%TD*%
D14*
%TO.P,U1,1,VCC*%
%TO.N,Net-(D1-Pad2)*%
X186755000Y-100330000D03*
%TO.P,U1,2,PA4*%
%TO.N,unconnected-(U1-Pad2)*%
X186755000Y-101600000D03*
%TO.P,U1,3,PA5*%
%TO.N,unconnected-(U1-Pad3)*%
X186755000Y-102870000D03*
%TO.P,U1,4,PA6/DAC*%
%TO.N,unconnected-(U1-Pad4)*%
X186755000Y-104140000D03*
%TO.P,U1,5,PA7*%
%TO.N,unconnected-(U1-Pad5)*%
X186755000Y-105410000D03*
%TO.P,U1,6,PB3/RXD*%
%TO.N,unconnected-(U1-Pad6)*%
X186755000Y-106680000D03*
%TO.P,U1,7,PB2/TXD*%
%TO.N,unconnected-(U1-Pad7)*%
X186755000Y-107950000D03*
%TO.P,U1,8,PB1/SDA*%
%TO.N,Net-(J2-Pad3)*%
X191705000Y-107950000D03*
%TO.P,U1,9,PB0/SCL*%
%TO.N,Net-(J2-Pad2)*%
X191705000Y-106680000D03*
%TO.P,U1,10,~{RESET}/UPDI/PA0*%
%TO.N,Net-(J1-Pad3)*%
X191705000Y-105410000D03*
%TO.P,U1,11,PA1*%
%TO.N,unconnected-(U1-Pad11)*%
X191705000Y-104140000D03*
%TO.P,U1,12,PA2*%
%TO.N,unconnected-(U1-Pad12)*%
X191705000Y-102870000D03*
%TO.P,U1,13,PA3/SCK*%
%TO.N,Net-(D2-Pad2)*%
X191705000Y-101600000D03*
%TO.P,U1,14,GND*%
%TO.N,Net-(J1-Pad2)*%
X191705000Y-100330000D03*
%TD*%
D12*
%TO.P,R1,1*%
%TO.N,Net-(J1-Pad2)*%
X129550000Y-63555000D03*
%TO.P,R1,2*%
%TO.N,Net-(D1-Pad1)*%
X125550000Y-63555000D03*
%TD*%
%TO.P,R4,1*%
%TO.N,Net-(D4-Pad1)*%
X123730000Y-107315000D03*
%TO.P,R4,2*%
%TO.N,Net-(J3-Pad2)*%
X127730000Y-107315000D03*
%TD*%
D15*
%TO.P,J1,1,Pin_1*%
%TO.N,Net-(D1-Pad2)*%
X186680000Y-93740000D03*
%TO.P,J1,2,Pin_2*%
%TO.N,Net-(J1-Pad2)*%
X189220000Y-93740000D03*
%TO.P,J1,3,Pin_3*%
%TO.N,Net-(J1-Pad3)*%
X191760000Y-93740000D03*
%TD*%
%TO.P,J1,1,Pin_1*%
%TO.N,Net-(D1-Pad2)*%
X134620000Y-55695000D03*
%TO.P,J1,2,Pin_2*%
%TO.N,Net-(J1-Pad2)*%
X137160000Y-55695000D03*
%TO.P,J1,3,Pin_3*%
%TO.N,Net-(J1-Pad3)*%
X139700000Y-55695000D03*
%TD*%
D12*
%TO.P,D3,1,K*%
%TO.N,Net-(D3-Pad1)*%
X118840000Y-100965000D03*
%TO.P,D3,2,A*%
%TO.N,Net-(D3-Pad2)*%
X114840000Y-100965000D03*
%TD*%
%TO.P,D1,1,K*%
%TO.N,Net-(D1-Pad1)*%
X121930000Y-63555000D03*
%TO.P,D1,2,A*%
%TO.N,Net-(D1-Pad2)*%
X117930000Y-63555000D03*
%TD*%
D13*
%TO.P,J2,1,Pin_1*%
%TO.N,Net-(J1-Pad2)*%
X198360000Y-101590000D03*
%TO.P,J2,2,Pin_2*%
%TO.N,Net-(J2-Pad2)*%
X198360000Y-104130000D03*
%TO.P,J2,3,Pin_3*%
%TO.N,Net-(J2-Pad3)*%
X198360000Y-106670000D03*
%TD*%
D12*
%TO.P,D4,1,K*%
%TO.N,Net-(D4-Pad1)*%
X118840000Y-107315000D03*
%TO.P,D4,2,A*%
%TO.N,Net-(D4-Pad2)*%
X114840000Y-107315000D03*
%TD*%
D15*
%TO.P,J3,1,Pin_1*%
%TO.N,Net-(D3-Pad2)*%
X133340000Y-95010000D03*
%TO.P,J3,2,Pin_2*%
%TO.N,Net-(J3-Pad2)*%
X135880000Y-95010000D03*
%TO.P,J3,3,Pin_3*%
%TO.N,Net-(J3-Pad3)*%
X138420000Y-95010000D03*
%TD*%
D12*
%TO.P,D2,1,K*%
%TO.N,Net-(D2-Pad1)*%
X121930000Y-68635000D03*
%TO.P,D2,2,A*%
%TO.N,Net-(D2-Pad2)*%
X117930000Y-68635000D03*
%TD*%
%TO.P,D1,1,K*%
%TO.N,Net-(D1-Pad1)*%
X173990000Y-101600000D03*
%TO.P,D1,2,A*%
%TO.N,Net-(D1-Pad2)*%
X169990000Y-101600000D03*
%TD*%
D14*
%TO.P,U2,1,VCC*%
%TO.N,Net-(D3-Pad2)*%
X133415000Y-100330000D03*
%TO.P,U2,2,PA4*%
%TO.N,unconnected-(U2-Pad2)*%
X133415000Y-101600000D03*
%TO.P,U2,3,PA5*%
%TO.N,unconnected-(U2-Pad3)*%
X133415000Y-102870000D03*
%TO.P,U2,4,PA6/DAC*%
%TO.N,unconnected-(U2-Pad4)*%
X133415000Y-104140000D03*
%TO.P,U2,5,PA7*%
%TO.N,unconnected-(U2-Pad5)*%
X133415000Y-105410000D03*
%TO.P,U2,6,PB3/RXD*%
%TO.N,unconnected-(U2-Pad6)*%
X133415000Y-106680000D03*
%TO.P,U2,7,PB2/TXD*%
%TO.N,unconnected-(U2-Pad7)*%
X133415000Y-107950000D03*
%TO.P,U2,8,PB1/SDA*%
%TO.N,Net-(J4-Pad5)*%
X138365000Y-107950000D03*
%TO.P,U2,9,PB0/SCL*%
%TO.N,Net-(J4-Pad3)*%
X138365000Y-106680000D03*
%TO.P,U2,10,~{RESET}/UPDI/PA0*%
%TO.N,Net-(J3-Pad3)*%
X138365000Y-105410000D03*
%TO.P,U2,11,PA1*%
%TO.N,unconnected-(U2-Pad11)*%
X138365000Y-104140000D03*
%TO.P,U2,12,PA2*%
%TO.N,unconnected-(U2-Pad12)*%
X138365000Y-102870000D03*
%TO.P,U2,13,PA3/SCK*%
%TO.N,Net-(D4-Pad2)*%
X138365000Y-101600000D03*
%TO.P,U2,14,GND*%
%TO.N,Net-(J3-Pad2)*%
X138365000Y-100330000D03*
%TD*%
D12*
%TO.P,D2,1,K*%
%TO.N,Net-(D2-Pad1)*%
X173990000Y-106680000D03*
%TO.P,D2,2,A*%
%TO.N,Net-(D2-Pad2)*%
X169990000Y-106680000D03*
%TD*%
D14*
%TO.P,U1,1,VCC*%
%TO.N,Net-(D1-Pad2)*%
X134695000Y-62285000D03*
%TO.P,U1,2,PA4*%
%TO.N,unconnected-(U1-Pad2)*%
X134695000Y-63555000D03*
%TO.P,U1,3,PA5*%
%TO.N,unconnected-(U1-Pad3)*%
X134695000Y-64825000D03*
%TO.P,U1,4,PA6/DAC*%
%TO.N,unconnected-(U1-Pad4)*%
X134695000Y-66095000D03*
%TO.P,U1,5,PA7*%
%TO.N,unconnected-(U1-Pad5)*%
X134695000Y-67365000D03*
%TO.P,U1,6,PB3/RXD*%
%TO.N,unconnected-(U1-Pad6)*%
X134695000Y-68635000D03*
%TO.P,U1,7,PB2/TXD*%
%TO.N,unconnected-(U1-Pad7)*%
X134695000Y-69905000D03*
%TO.P,U1,8,PB1/SDA*%
%TO.N,Net-(J2-Pad3)*%
X139645000Y-69905000D03*
%TO.P,U1,9,PB0/SCL*%
%TO.N,Net-(J2-Pad2)*%
X139645000Y-68635000D03*
%TO.P,U1,10,~{RESET}/UPDI/PA0*%
%TO.N,Net-(J1-Pad3)*%
X139645000Y-67365000D03*
%TO.P,U1,11,PA1*%
%TO.N,unconnected-(U1-Pad11)*%
X139645000Y-66095000D03*
%TO.P,U1,12,PA2*%
%TO.N,unconnected-(U1-Pad12)*%
X139645000Y-64825000D03*
%TO.P,U1,13,PA3/SCK*%
%TO.N,Net-(D2-Pad2)*%
X139645000Y-63555000D03*
%TO.P,U1,14,GND*%
%TO.N,Net-(J1-Pad2)*%
X139645000Y-62285000D03*
%TD*%
D12*
%TO.P,R2,1*%
%TO.N,Net-(D2-Pad1)*%
X177610000Y-106680000D03*
%TO.P,R2,2*%
%TO.N,Net-(J1-Pad2)*%
X181610000Y-106680000D03*
%TD*%
D16*
%TO.N,Net-(D1-Pad2)*%
X169990000Y-103060000D02*
X169990000Y-101600000D01*
X132090000Y-64825000D02*
X132090000Y-62920000D01*
X170435000Y-103505000D02*
X183515000Y-103505000D01*
X118375000Y-65460000D02*
X117930000Y-65015000D01*
X132725000Y-62285000D02*
X134695000Y-62285000D01*
X118375000Y-65460000D02*
X131455000Y-65460000D01*
X184785000Y-100330000D02*
X186755000Y-100330000D01*
X184150000Y-100965000D02*
X184785000Y-100330000D01*
X117930000Y-65015000D02*
X117930000Y-63555000D01*
X186680000Y-93740000D02*
X186680000Y-100255000D01*
X134620000Y-62210000D02*
X134695000Y-62285000D01*
X186680000Y-100255000D02*
X186755000Y-100330000D01*
X131455000Y-65460000D02*
X132090000Y-64825000D01*
X134620000Y-55695000D02*
X134620000Y-62210000D01*
X184150000Y-102870000D02*
X184150000Y-100965000D01*
X183515000Y-103505000D02*
X184150000Y-102870000D01*
X132090000Y-62920000D02*
X132725000Y-62285000D01*
X170435000Y-103505000D02*
X169990000Y-103060000D01*
%TO.N,Net-(D1-Pad1)*%
X121930000Y-63555000D02*
X125550000Y-63555000D01*
X173990000Y-101600000D02*
X177610000Y-101600000D01*
%TO.N,Net-(D2-Pad2)*%
X116850000Y-68635000D02*
X114945000Y-70540000D01*
X117930000Y-68635000D02*
X116850000Y-68635000D01*
X116850000Y-73715000D02*
X123200000Y-73715000D01*
X136535000Y-64825000D02*
X137805000Y-63555000D01*
X169990000Y-106680000D02*
X168910000Y-106680000D01*
X189865000Y-101600000D02*
X191705000Y-101600000D01*
X167005000Y-109855000D02*
X168910000Y-111760000D01*
X168910000Y-111760000D02*
X175260000Y-111760000D01*
X125105000Y-71810000D02*
X135900000Y-71810000D01*
X137805000Y-63555000D02*
X139645000Y-63555000D01*
X168910000Y-106680000D02*
X167005000Y-108585000D01*
X175260000Y-111760000D02*
X177165000Y-109855000D01*
X188595000Y-109220000D02*
X188595000Y-102870000D01*
X187960000Y-109855000D02*
X188595000Y-109220000D01*
X177165000Y-109855000D02*
X187960000Y-109855000D01*
X135900000Y-71810000D02*
X136535000Y-71175000D01*
X136535000Y-71175000D02*
X136535000Y-64825000D01*
X114945000Y-71810000D02*
X116850000Y-73715000D01*
X167005000Y-108585000D02*
X167005000Y-109855000D01*
X114945000Y-70540000D02*
X114945000Y-71810000D01*
X188595000Y-102870000D02*
X189865000Y-101600000D01*
X123200000Y-73715000D02*
X125105000Y-71810000D01*
%TO.N,Net-(D2-Pad1)*%
X173990000Y-106680000D02*
X177610000Y-106680000D01*
X121930000Y-68635000D02*
X125550000Y-68635000D01*
%TO.N,Net-(J1-Pad2)*%
X115580000Y-65460000D02*
X115580000Y-59745000D01*
X168910000Y-96520000D02*
X175260000Y-96520000D01*
X123200000Y-58475000D02*
X125740000Y-61015000D01*
X181610000Y-106680000D02*
X181610000Y-105410000D01*
X137160000Y-55695000D02*
X137160000Y-57195000D01*
X125740000Y-61015000D02*
X128280000Y-61015000D01*
X132090000Y-59745000D02*
X132090000Y-53395000D01*
X191760000Y-100275000D02*
X191705000Y-100330000D01*
X189220000Y-91430000D02*
X189220000Y-93740000D01*
X167640000Y-103505000D02*
X167640000Y-97790000D01*
X197100000Y-100330000D02*
X198360000Y-101590000D01*
X181610000Y-100330000D02*
X181610000Y-101600000D01*
X184150000Y-91440000D02*
X184785000Y-90805000D01*
X132725000Y-52760000D02*
X136535000Y-52760000D01*
X177800000Y-99060000D02*
X180340000Y-99060000D01*
X129550000Y-62285000D02*
X132090000Y-59745000D01*
X139645000Y-62285000D02*
X145040000Y-62285000D01*
X184150000Y-97790000D02*
X184150000Y-91440000D01*
X139645000Y-59680000D02*
X139645000Y-62285000D01*
X115580000Y-59745000D02*
X116850000Y-58475000D01*
X167640000Y-97790000D02*
X168910000Y-96520000D01*
X137160000Y-57195000D02*
X139645000Y-59680000D01*
X132090000Y-53395000D02*
X132725000Y-52760000D01*
X136535000Y-52760000D02*
X137160000Y-53385000D01*
X128280000Y-61015000D02*
X129550000Y-62285000D01*
X191705000Y-97725000D02*
X191705000Y-100330000D01*
X188595000Y-90805000D02*
X189220000Y-91430000D01*
X129550000Y-62285000D02*
X129550000Y-63555000D01*
X191705000Y-100330000D02*
X197100000Y-100330000D01*
X116850000Y-66730000D02*
X115580000Y-65460000D01*
X145040000Y-62285000D02*
X146300000Y-63545000D01*
X181610000Y-100330000D02*
X184150000Y-97790000D01*
X184785000Y-90805000D02*
X188595000Y-90805000D01*
X189220000Y-95240000D02*
X191705000Y-97725000D01*
X137160000Y-53385000D02*
X137160000Y-55695000D01*
X180340000Y-99060000D02*
X181610000Y-100330000D01*
X189220000Y-93740000D02*
X189220000Y-95240000D01*
X168910000Y-104775000D02*
X167640000Y-103505000D01*
X139700000Y-62230000D02*
X139645000Y-62285000D01*
X129550000Y-68635000D02*
X129550000Y-67365000D01*
X116850000Y-58475000D02*
X123200000Y-58475000D01*
X180975000Y-104775000D02*
X168910000Y-104775000D01*
X181610000Y-105410000D02*
X180975000Y-104775000D01*
X128915000Y-66730000D02*
X116850000Y-66730000D01*
X175260000Y-96520000D02*
X177800000Y-99060000D01*
X129550000Y-67365000D02*
X128915000Y-66730000D01*
%TO.N,Net-(J1-Pad3)*%
X149235000Y-69905000D02*
X147965000Y-71175000D01*
X191760000Y-95240000D02*
X195580000Y-99060000D01*
X189865000Y-108585000D02*
X189865000Y-106045000D01*
X201295000Y-107950000D02*
X200025000Y-109220000D01*
X137805000Y-68000000D02*
X138440000Y-67365000D01*
X201295000Y-100965000D02*
X201295000Y-107950000D01*
X138440000Y-67365000D02*
X139645000Y-67365000D01*
X139700000Y-57195000D02*
X143520000Y-61015000D01*
X189865000Y-106045000D02*
X190500000Y-105410000D01*
X199390000Y-99060000D02*
X201295000Y-100965000D01*
X143520000Y-61015000D02*
X147330000Y-61015000D01*
X147330000Y-61015000D02*
X149235000Y-62920000D01*
X138440000Y-71175000D02*
X137805000Y-70540000D01*
X200025000Y-109220000D02*
X190500000Y-109220000D01*
X147965000Y-71175000D02*
X138440000Y-71175000D01*
X149235000Y-62920000D02*
X149235000Y-69905000D01*
X191760000Y-93740000D02*
X191760000Y-95240000D01*
X190500000Y-109220000D02*
X189865000Y-108585000D01*
X137805000Y-70540000D02*
X137805000Y-68000000D01*
X139700000Y-55695000D02*
X139700000Y-57195000D01*
X195580000Y-99060000D02*
X199390000Y-99060000D01*
X190500000Y-105410000D02*
X191705000Y-105410000D01*
%TO.N,Net-(D3-Pad2)*%
X130810000Y-108585000D02*
X130810000Y-100965000D01*
X114840000Y-100965000D02*
X118015000Y-104140000D01*
X125730000Y-109220000D02*
X126365000Y-109855000D01*
X125730000Y-104140000D02*
X125730000Y-109220000D01*
X133415000Y-95085000D02*
X133340000Y-95010000D01*
X126365000Y-109855000D02*
X129540000Y-109855000D01*
X129540000Y-109855000D02*
X130810000Y-108585000D01*
X131445000Y-100330000D02*
X133415000Y-100330000D01*
X133415000Y-100330000D02*
X133415000Y-95085000D01*
X130810000Y-100965000D02*
X131445000Y-100330000D01*
X118015000Y-104140000D02*
X125730000Y-104140000D01*
%TO.N,Net-(J2-Pad3)*%
X198360000Y-106670000D02*
X196860000Y-106670000D01*
X196860000Y-106670000D02*
X195580000Y-107950000D01*
X195580000Y-107950000D02*
X191705000Y-107950000D01*
X146300000Y-68625000D02*
X144800000Y-68625000D01*
X143520000Y-69905000D02*
X139645000Y-69905000D01*
X144800000Y-68625000D02*
X143520000Y-69905000D01*
%TO.N,Net-(D3-Pad1)*%
X118840000Y-100965000D02*
X123730000Y-100965000D01*
%TO.N,Net-(D4-Pad2)*%
X135890000Y-101600000D02*
X138365000Y-101600000D01*
X135255000Y-102235000D02*
X135890000Y-101600000D01*
X115570000Y-113030000D02*
X126365000Y-113030000D01*
X126365000Y-113030000D02*
X128270000Y-111125000D01*
X114840000Y-112300000D02*
X115570000Y-113030000D01*
X133350000Y-111125000D02*
X135255000Y-109220000D01*
X114840000Y-107315000D02*
X114840000Y-112300000D01*
X128270000Y-111125000D02*
X133350000Y-111125000D01*
X135255000Y-109220000D02*
X135255000Y-102235000D01*
%TO.N,Net-(D4-Pad1)*%
X118840000Y-107315000D02*
X123730000Y-107315000D01*
%TO.N,Net-(J2-Pad2)*%
X139645000Y-68635000D02*
X142250000Y-68635000D01*
X194310000Y-106680000D02*
X196860000Y-104130000D01*
X142250000Y-68635000D02*
X144800000Y-66085000D01*
X191705000Y-106680000D02*
X194310000Y-106680000D01*
X196860000Y-104130000D02*
X198360000Y-104130000D01*
X144800000Y-66085000D02*
X146300000Y-66085000D01*
%TO.N,Net-(J3-Pad2)*%
X135255000Y-92075000D02*
X135890000Y-92710000D01*
X127730000Y-107315000D02*
X127730000Y-100965000D01*
X135880000Y-97845000D02*
X138365000Y-100330000D01*
X127730000Y-95155000D02*
X130810000Y-92075000D01*
X135890000Y-92710000D02*
X135880000Y-92720000D01*
X146290000Y-100330000D02*
X146290000Y-97790000D01*
X135880000Y-92720000D02*
X135880000Y-95010000D01*
X135880000Y-95010000D02*
X135880000Y-97845000D01*
X130810000Y-92075000D02*
X135255000Y-92075000D01*
X138365000Y-100330000D02*
X146290000Y-100330000D01*
X127730000Y-100965000D02*
X127730000Y-95155000D01*
%TO.N,Net-(J3-Pad3)*%
X140970000Y-109855000D02*
X137160000Y-109855000D01*
X137160000Y-109855000D02*
X136525000Y-109220000D01*
X144145000Y-113030000D02*
X140970000Y-109855000D01*
X138420000Y-95010000D02*
X147715000Y-95010000D01*
X147955000Y-113030000D02*
X144145000Y-113030000D01*
X137160000Y-105410000D02*
X138365000Y-105410000D01*
X149225000Y-96520000D02*
X149225000Y-111760000D01*
X147715000Y-95010000D02*
X149225000Y-96520000D01*
X136525000Y-109220000D02*
X136525000Y-106045000D01*
X149225000Y-111760000D02*
X147955000Y-113030000D01*
X136525000Y-106045000D02*
X137160000Y-105410000D01*
%TO.N,Net-(J4-Pad3)*%
X141135000Y-105410000D02*
X146290000Y-105410000D01*
X146290000Y-102870000D02*
X146290000Y-105410000D01*
X139865000Y-106680000D02*
X141135000Y-105410000D01*
X138365000Y-106680000D02*
X139865000Y-106680000D01*
%TO.N,Net-(J4-Pad5)*%
X146290000Y-107950000D02*
X138365000Y-107950000D01*
X146290000Y-107950000D02*
X146290000Y-110490000D01*
%TD*%
M02*
