%TF.GenerationSoftware,KiCad,Pcbnew,(6.0.2)*%
%TF.CreationDate,2022-12-08T13:34:26-05:00*%
%TF.ProjectId,Primary,5072696d-6172-4792-9e6b-696361645f70,rev?*%
%TF.SameCoordinates,Original*%
%TF.FileFunction,Copper,L1,Top*%
%TF.FilePolarity,Positive*%
%FSLAX46Y46*%
G04 Gerber Fmt 4.6, Leading zero omitted, Abs format (unit mm)*
G04 Created by KiCad (PCBNEW (6.0.2)) date 2022-12-08 13:34:26*
%MOMM*%
%LPD*%
G01*
G04 APERTURE LIST*
%ADD10C,0.300000*%
%TA.AperFunction,NonConductor*%
%ADD11C,0.300000*%
%TD*%
%ADD12C,0.500000*%
%TA.AperFunction,NonConductor*%
%ADD13C,0.500000*%
%TD*%
%TA.AperFunction,SMDPad,CuDef*%
%ADD14R,1.700000X2.500000*%
%TD*%
%TA.AperFunction,SMDPad,CuDef*%
%ADD15R,2.500000X1.700000*%
%TD*%
%TA.AperFunction,SMDPad,CuDef*%
%ADD16R,2.000000X0.600000*%
%TD*%
%TA.AperFunction,SMDPad,CuDef*%
%ADD17R,1.700000X2.000000*%
%TD*%
%TA.AperFunction,SMDPad,CuDef*%
%ADD18R,2.000000X1.700000*%
%TD*%
%TA.AperFunction,SMDPad,CuDef*%
%ADD19R,3.150000X1.000000*%
%TD*%
%TA.AperFunction,Conductor*%
%ADD20C,0.500000*%
%TD*%
G04 APERTURE END LIST*
D10*
D11*
X167511428Y-89015000D02*
X167654285Y-89086428D01*
X167868571Y-89086428D01*
X168082857Y-89015000D01*
X168225714Y-88872142D01*
X168297142Y-88729285D01*
X168368571Y-88443571D01*
X168368571Y-88229285D01*
X168297142Y-87943571D01*
X168225714Y-87800714D01*
X168082857Y-87657857D01*
X167868571Y-87586428D01*
X167725714Y-87586428D01*
X167511428Y-87657857D01*
X167440000Y-87729285D01*
X167440000Y-88229285D01*
X167725714Y-88229285D01*
X165940000Y-87586428D02*
X166440000Y-88300714D01*
X166797142Y-87586428D02*
X166797142Y-89086428D01*
X166225714Y-89086428D01*
X166082857Y-89015000D01*
X166011428Y-88943571D01*
X165940000Y-88800714D01*
X165940000Y-88586428D01*
X166011428Y-88443571D01*
X166082857Y-88372142D01*
X166225714Y-88300714D01*
X166797142Y-88300714D01*
X165011428Y-89086428D02*
X164725714Y-89086428D01*
X164582857Y-89015000D01*
X164440000Y-88872142D01*
X164368571Y-88586428D01*
X164368571Y-88086428D01*
X164440000Y-87800714D01*
X164582857Y-87657857D01*
X164725714Y-87586428D01*
X165011428Y-87586428D01*
X165154285Y-87657857D01*
X165297142Y-87800714D01*
X165368571Y-88086428D01*
X165368571Y-88586428D01*
X165297142Y-88872142D01*
X165154285Y-89015000D01*
X165011428Y-89086428D01*
X163725714Y-89086428D02*
X163725714Y-87872142D01*
X163654285Y-87729285D01*
X163582857Y-87657857D01*
X163440000Y-87586428D01*
X163154285Y-87586428D01*
X163011428Y-87657857D01*
X162940000Y-87729285D01*
X162868571Y-87872142D01*
X162868571Y-89086428D01*
X162154285Y-87586428D02*
X162154285Y-89086428D01*
X161297142Y-87586428D01*
X161297142Y-89086428D01*
X160582857Y-87586428D02*
X160582857Y-89086428D01*
X160225714Y-89086428D01*
X160011428Y-89015000D01*
X159868571Y-88872142D01*
X159797142Y-88729285D01*
X159725714Y-88443571D01*
X159725714Y-88229285D01*
X159797142Y-87943571D01*
X159868571Y-87800714D01*
X160011428Y-87657857D01*
X160225714Y-87586428D01*
X160582857Y-87586428D01*
X159154285Y-87657857D02*
X159011428Y-87586428D01*
X158725714Y-87586428D01*
X158582857Y-87657857D01*
X158511428Y-87800714D01*
X158511428Y-87872142D01*
X158582857Y-88015000D01*
X158725714Y-88086428D01*
X158940000Y-88086428D01*
X159082857Y-88157857D01*
X159154285Y-88300714D01*
X159154285Y-88372142D01*
X159082857Y-88515000D01*
X158940000Y-88586428D01*
X158725714Y-88586428D01*
X158582857Y-88515000D01*
X156368571Y-87086428D02*
X156368571Y-89229285D01*
X154368571Y-89086428D02*
X153868571Y-87586428D01*
X153368571Y-89086428D01*
X152011428Y-87729285D02*
X152082857Y-87657857D01*
X152297142Y-87586428D01*
X152440000Y-87586428D01*
X152654285Y-87657857D01*
X152797142Y-87800714D01*
X152868571Y-87943571D01*
X152940000Y-88229285D01*
X152940000Y-88443571D01*
X152868571Y-88729285D01*
X152797142Y-88872142D01*
X152654285Y-89015000D01*
X152440000Y-89086428D01*
X152297142Y-89086428D01*
X152082857Y-89015000D01*
X152011428Y-88943571D01*
X150511428Y-87729285D02*
X150582857Y-87657857D01*
X150797142Y-87586428D01*
X150940000Y-87586428D01*
X151154285Y-87657857D01*
X151297142Y-87800714D01*
X151368571Y-87943571D01*
X151440000Y-88229285D01*
X151440000Y-88443571D01*
X151368571Y-88729285D01*
X151297142Y-88872142D01*
X151154285Y-89015000D01*
X150940000Y-89086428D01*
X150797142Y-89086428D01*
X150582857Y-89015000D01*
X150511428Y-88943571D01*
X148368571Y-87086428D02*
X148368571Y-89229285D01*
X146154285Y-89086428D02*
X146154285Y-87872142D01*
X146082857Y-87729285D01*
X146011428Y-87657857D01*
X145868571Y-87586428D01*
X145582857Y-87586428D01*
X145440000Y-87657857D01*
X145368571Y-87729285D01*
X145297142Y-87872142D01*
X145297142Y-89086428D01*
X144582857Y-87586428D02*
X144582857Y-89086428D01*
X144011428Y-89086428D01*
X143868571Y-89015000D01*
X143797142Y-88943571D01*
X143725714Y-88800714D01*
X143725714Y-88586428D01*
X143797142Y-88443571D01*
X143868571Y-88372142D01*
X144011428Y-88300714D01*
X144582857Y-88300714D01*
X143082857Y-87586428D02*
X143082857Y-89086428D01*
X142725714Y-89086428D01*
X142511428Y-89015000D01*
X142368571Y-88872142D01*
X142297142Y-88729285D01*
X142225714Y-88443571D01*
X142225714Y-88229285D01*
X142297142Y-87943571D01*
X142368571Y-87800714D01*
X142511428Y-87657857D01*
X142725714Y-87586428D01*
X143082857Y-87586428D01*
X141582857Y-87586428D02*
X141582857Y-89086428D01*
D10*
D11*
X95215714Y-126892857D02*
X95715714Y-126892857D01*
X95930000Y-127678571D02*
X95215714Y-127678571D01*
X95215714Y-126178571D01*
X95930000Y-126178571D01*
X96430000Y-126178571D02*
X97430000Y-127678571D01*
X97430000Y-126178571D02*
X96430000Y-127678571D01*
X98001428Y-127535714D02*
X98072857Y-127607142D01*
X98001428Y-127678571D01*
X97930000Y-127607142D01*
X98001428Y-127535714D01*
X98001428Y-127678571D01*
X99644285Y-126178571D02*
X100144285Y-127678571D01*
X100644285Y-126178571D01*
X102001428Y-127535714D02*
X101930000Y-127607142D01*
X101715714Y-127678571D01*
X101572857Y-127678571D01*
X101358571Y-127607142D01*
X101215714Y-127464285D01*
X101144285Y-127321428D01*
X101072857Y-127035714D01*
X101072857Y-126821428D01*
X101144285Y-126535714D01*
X101215714Y-126392857D01*
X101358571Y-126250000D01*
X101572857Y-126178571D01*
X101715714Y-126178571D01*
X101930000Y-126250000D01*
X102001428Y-126321428D01*
X103501428Y-127535714D02*
X103430000Y-127607142D01*
X103215714Y-127678571D01*
X103072857Y-127678571D01*
X102858571Y-127607142D01*
X102715714Y-127464285D01*
X102644285Y-127321428D01*
X102572857Y-127035714D01*
X102572857Y-126821428D01*
X102644285Y-126535714D01*
X102715714Y-126392857D01*
X102858571Y-126250000D01*
X103072857Y-126178571D01*
X103215714Y-126178571D01*
X103430000Y-126250000D01*
X103501428Y-126321428D01*
X105644285Y-128178571D02*
X105644285Y-126035714D01*
X107858571Y-127678571D02*
X107858571Y-126178571D01*
X108215714Y-126178571D01*
X108430000Y-126250000D01*
X108572857Y-126392857D01*
X108644285Y-126535714D01*
X108715714Y-126821428D01*
X108715714Y-127035714D01*
X108644285Y-127321428D01*
X108572857Y-127464285D01*
X108430000Y-127607142D01*
X108215714Y-127678571D01*
X107858571Y-127678571D01*
X109358571Y-127678571D02*
X109358571Y-126178571D01*
X110001428Y-127607142D02*
X110215714Y-127678571D01*
X110572857Y-127678571D01*
X110715714Y-127607142D01*
X110787142Y-127535714D01*
X110858571Y-127392857D01*
X110858571Y-127250000D01*
X110787142Y-127107142D01*
X110715714Y-127035714D01*
X110572857Y-126964285D01*
X110287142Y-126892857D01*
X110144285Y-126821428D01*
X110072857Y-126750000D01*
X110001428Y-126607142D01*
X110001428Y-126464285D01*
X110072857Y-126321428D01*
X110144285Y-126250000D01*
X110287142Y-126178571D01*
X110644285Y-126178571D01*
X110858571Y-126250000D01*
X111501428Y-127535714D02*
X111572857Y-127607142D01*
X111501428Y-127678571D01*
X111430000Y-127607142D01*
X111501428Y-127535714D01*
X111501428Y-127678571D01*
X113144285Y-126178571D02*
X113644285Y-127678571D01*
X114144285Y-126178571D01*
X115501428Y-127535714D02*
X115430000Y-127607142D01*
X115215714Y-127678571D01*
X115072857Y-127678571D01*
X114858571Y-127607142D01*
X114715714Y-127464285D01*
X114644285Y-127321428D01*
X114572857Y-127035714D01*
X114572857Y-126821428D01*
X114644285Y-126535714D01*
X114715714Y-126392857D01*
X114858571Y-126250000D01*
X115072857Y-126178571D01*
X115215714Y-126178571D01*
X115430000Y-126250000D01*
X115501428Y-126321428D01*
X117001428Y-127535714D02*
X116930000Y-127607142D01*
X116715714Y-127678571D01*
X116572857Y-127678571D01*
X116358571Y-127607142D01*
X116215714Y-127464285D01*
X116144285Y-127321428D01*
X116072857Y-127035714D01*
X116072857Y-126821428D01*
X116144285Y-126535714D01*
X116215714Y-126392857D01*
X116358571Y-126250000D01*
X116572857Y-126178571D01*
X116715714Y-126178571D01*
X116930000Y-126250000D01*
X117001428Y-126321428D01*
X117572857Y-127607142D02*
X117715714Y-127678571D01*
X118001428Y-127678571D01*
X118144285Y-127607142D01*
X118215714Y-127464285D01*
X118215714Y-127392857D01*
X118144285Y-127250000D01*
X118001428Y-127178571D01*
X117787142Y-127178571D01*
X117644285Y-127107142D01*
X117572857Y-126964285D01*
X117572857Y-126892857D01*
X117644285Y-126750000D01*
X117787142Y-126678571D01*
X118001428Y-126678571D01*
X118144285Y-126750000D01*
D10*
D11*
X144674285Y-118645714D02*
X144602857Y-118717142D01*
X144388571Y-118788571D01*
X144245714Y-118788571D01*
X144031428Y-118717142D01*
X143888571Y-118574285D01*
X143817142Y-118431428D01*
X143745714Y-118145714D01*
X143745714Y-117931428D01*
X143817142Y-117645714D01*
X143888571Y-117502857D01*
X144031428Y-117360000D01*
X144245714Y-117288571D01*
X144388571Y-117288571D01*
X144602857Y-117360000D01*
X144674285Y-117431428D01*
X145602857Y-117288571D02*
X145888571Y-117288571D01*
X146031428Y-117360000D01*
X146174285Y-117502857D01*
X146245714Y-117788571D01*
X146245714Y-118288571D01*
X146174285Y-118574285D01*
X146031428Y-118717142D01*
X145888571Y-118788571D01*
X145602857Y-118788571D01*
X145460000Y-118717142D01*
X145317142Y-118574285D01*
X145245714Y-118288571D01*
X145245714Y-117788571D01*
X145317142Y-117502857D01*
X145460000Y-117360000D01*
X145602857Y-117288571D01*
X146888571Y-118788571D02*
X146888571Y-117288571D01*
X147745714Y-118788571D01*
X147745714Y-117288571D01*
X148245714Y-117288571D02*
X149102857Y-117288571D01*
X148674285Y-118788571D02*
X148674285Y-117288571D01*
X149531428Y-118360000D02*
X150245714Y-118360000D01*
X149388571Y-118788571D02*
X149888571Y-117288571D01*
X150388571Y-118788571D01*
X151745714Y-118645714D02*
X151674285Y-118717142D01*
X151460000Y-118788571D01*
X151317142Y-118788571D01*
X151102857Y-118717142D01*
X150960000Y-118574285D01*
X150888571Y-118431428D01*
X150817142Y-118145714D01*
X150817142Y-117931428D01*
X150888571Y-117645714D01*
X150960000Y-117502857D01*
X151102857Y-117360000D01*
X151317142Y-117288571D01*
X151460000Y-117288571D01*
X151674285Y-117360000D01*
X151745714Y-117431428D01*
X152174285Y-117288571D02*
X153031428Y-117288571D01*
X152602857Y-118788571D02*
X152602857Y-117288571D01*
X153460000Y-118717142D02*
X153674285Y-118788571D01*
X154031428Y-118788571D01*
X154174285Y-118717142D01*
X154245714Y-118645714D01*
X154317142Y-118502857D01*
X154317142Y-118360000D01*
X154245714Y-118217142D01*
X154174285Y-118145714D01*
X154031428Y-118074285D01*
X153745714Y-118002857D01*
X153602857Y-117931428D01*
X153531428Y-117860000D01*
X153460000Y-117717142D01*
X153460000Y-117574285D01*
X153531428Y-117431428D01*
X153602857Y-117360000D01*
X153745714Y-117288571D01*
X154102857Y-117288571D01*
X154317142Y-117360000D01*
X156460000Y-119288571D02*
X156460000Y-117145714D01*
X159460000Y-117360000D02*
X159317142Y-117288571D01*
X159102857Y-117288571D01*
X158888571Y-117360000D01*
X158745714Y-117502857D01*
X158674285Y-117645714D01*
X158602857Y-117931428D01*
X158602857Y-118145714D01*
X158674285Y-118431428D01*
X158745714Y-118574285D01*
X158888571Y-118717142D01*
X159102857Y-118788571D01*
X159245714Y-118788571D01*
X159460000Y-118717142D01*
X159531428Y-118645714D01*
X159531428Y-118145714D01*
X159245714Y-118145714D01*
X161031428Y-118788571D02*
X160531428Y-118074285D01*
X160174285Y-118788571D02*
X160174285Y-117288571D01*
X160745714Y-117288571D01*
X160888571Y-117360000D01*
X160960000Y-117431428D01*
X161031428Y-117574285D01*
X161031428Y-117788571D01*
X160960000Y-117931428D01*
X160888571Y-118002857D01*
X160745714Y-118074285D01*
X160174285Y-118074285D01*
X161960000Y-117288571D02*
X162245714Y-117288571D01*
X162388571Y-117360000D01*
X162531428Y-117502857D01*
X162602857Y-117788571D01*
X162602857Y-118288571D01*
X162531428Y-118574285D01*
X162388571Y-118717142D01*
X162245714Y-118788571D01*
X161960000Y-118788571D01*
X161817142Y-118717142D01*
X161674285Y-118574285D01*
X161602857Y-118288571D01*
X161602857Y-117788571D01*
X161674285Y-117502857D01*
X161817142Y-117360000D01*
X161960000Y-117288571D01*
X163245714Y-117288571D02*
X163245714Y-118502857D01*
X163317142Y-118645714D01*
X163388571Y-118717142D01*
X163531428Y-118788571D01*
X163817142Y-118788571D01*
X163960000Y-118717142D01*
X164031428Y-118645714D01*
X164102857Y-118502857D01*
X164102857Y-117288571D01*
X164817142Y-118788571D02*
X164817142Y-117288571D01*
X165674285Y-118788571D01*
X165674285Y-117288571D01*
X166388571Y-118788571D02*
X166388571Y-117288571D01*
X166745714Y-117288571D01*
X166960000Y-117360000D01*
X167102857Y-117502857D01*
X167174285Y-117645714D01*
X167245714Y-117931428D01*
X167245714Y-118145714D01*
X167174285Y-118431428D01*
X167102857Y-118574285D01*
X166960000Y-118717142D01*
X166745714Y-118788571D01*
X166388571Y-118788571D01*
X167817142Y-118717142D02*
X168031428Y-118788571D01*
X168388571Y-118788571D01*
X168531428Y-118717142D01*
X168602857Y-118645714D01*
X168674285Y-118502857D01*
X168674285Y-118360000D01*
X168602857Y-118217142D01*
X168531428Y-118145714D01*
X168388571Y-118074285D01*
X168102857Y-118002857D01*
X167960000Y-117931428D01*
X167888571Y-117860000D01*
X167817142Y-117717142D01*
X167817142Y-117574285D01*
X167888571Y-117431428D01*
X167960000Y-117360000D01*
X168102857Y-117288571D01*
X168460000Y-117288571D01*
X168674285Y-117360000D01*
D10*
D11*
X94921428Y-94515714D02*
X94850000Y-94587142D01*
X94635714Y-94658571D01*
X94492857Y-94658571D01*
X94278571Y-94587142D01*
X94135714Y-94444285D01*
X94064285Y-94301428D01*
X93992857Y-94015714D01*
X93992857Y-93801428D01*
X94064285Y-93515714D01*
X94135714Y-93372857D01*
X94278571Y-93230000D01*
X94492857Y-93158571D01*
X94635714Y-93158571D01*
X94850000Y-93230000D01*
X94921428Y-93301428D01*
X95778571Y-94658571D02*
X95635714Y-94587142D01*
X95564285Y-94515714D01*
X95492857Y-94372857D01*
X95492857Y-93944285D01*
X95564285Y-93801428D01*
X95635714Y-93730000D01*
X95778571Y-93658571D01*
X95992857Y-93658571D01*
X96135714Y-93730000D01*
X96207142Y-93801428D01*
X96278571Y-93944285D01*
X96278571Y-94372857D01*
X96207142Y-94515714D01*
X96135714Y-94587142D01*
X95992857Y-94658571D01*
X95778571Y-94658571D01*
X96921428Y-93658571D02*
X96921428Y-94658571D01*
X96921428Y-93801428D02*
X96992857Y-93730000D01*
X97135714Y-93658571D01*
X97350000Y-93658571D01*
X97492857Y-93730000D01*
X97564285Y-93872857D01*
X97564285Y-94658571D01*
X98064285Y-93658571D02*
X98635714Y-93658571D01*
X98278571Y-93158571D02*
X98278571Y-94444285D01*
X98350000Y-94587142D01*
X98492857Y-94658571D01*
X98635714Y-94658571D01*
X99135714Y-94658571D02*
X99135714Y-93658571D01*
X99135714Y-93944285D02*
X99207142Y-93801428D01*
X99278571Y-93730000D01*
X99421428Y-93658571D01*
X99564285Y-93658571D01*
X100278571Y-94658571D02*
X100135714Y-94587142D01*
X100064285Y-94515714D01*
X99992857Y-94372857D01*
X99992857Y-93944285D01*
X100064285Y-93801428D01*
X100135714Y-93730000D01*
X100278571Y-93658571D01*
X100492857Y-93658571D01*
X100635714Y-93730000D01*
X100707142Y-93801428D01*
X100778571Y-93944285D01*
X100778571Y-94372857D01*
X100707142Y-94515714D01*
X100635714Y-94587142D01*
X100492857Y-94658571D01*
X100278571Y-94658571D01*
X101635714Y-94658571D02*
X101492857Y-94587142D01*
X101421428Y-94444285D01*
X101421428Y-93158571D01*
X103850000Y-93872857D02*
X104064285Y-93944285D01*
X104135714Y-94015714D01*
X104207142Y-94158571D01*
X104207142Y-94372857D01*
X104135714Y-94515714D01*
X104064285Y-94587142D01*
X103921428Y-94658571D01*
X103350000Y-94658571D01*
X103350000Y-93158571D01*
X103850000Y-93158571D01*
X103992857Y-93230000D01*
X104064285Y-93301428D01*
X104135714Y-93444285D01*
X104135714Y-93587142D01*
X104064285Y-93730000D01*
X103992857Y-93801428D01*
X103850000Y-93872857D01*
X103350000Y-93872857D01*
X105064285Y-94658571D02*
X104921428Y-94587142D01*
X104850000Y-94515714D01*
X104778571Y-94372857D01*
X104778571Y-93944285D01*
X104850000Y-93801428D01*
X104921428Y-93730000D01*
X105064285Y-93658571D01*
X105278571Y-93658571D01*
X105421428Y-93730000D01*
X105492857Y-93801428D01*
X105564285Y-93944285D01*
X105564285Y-94372857D01*
X105492857Y-94515714D01*
X105421428Y-94587142D01*
X105278571Y-94658571D01*
X105064285Y-94658571D01*
X106850000Y-94658571D02*
X106850000Y-93872857D01*
X106778571Y-93730000D01*
X106635714Y-93658571D01*
X106350000Y-93658571D01*
X106207142Y-93730000D01*
X106850000Y-94587142D02*
X106707142Y-94658571D01*
X106350000Y-94658571D01*
X106207142Y-94587142D01*
X106135714Y-94444285D01*
X106135714Y-94301428D01*
X106207142Y-94158571D01*
X106350000Y-94087142D01*
X106707142Y-94087142D01*
X106850000Y-94015714D01*
X107564285Y-94658571D02*
X107564285Y-93658571D01*
X107564285Y-93944285D02*
X107635714Y-93801428D01*
X107707142Y-93730000D01*
X107850000Y-93658571D01*
X107992857Y-93658571D01*
X109135714Y-94658571D02*
X109135714Y-93158571D01*
X109135714Y-94587142D02*
X108992857Y-94658571D01*
X108707142Y-94658571D01*
X108564285Y-94587142D01*
X108492857Y-94515714D01*
X108421428Y-94372857D01*
X108421428Y-93944285D01*
X108492857Y-93801428D01*
X108564285Y-93730000D01*
X108707142Y-93658571D01*
X108992857Y-93658571D01*
X109135714Y-93730000D01*
D12*
D13*
X95338571Y-89320714D02*
X94338571Y-89320714D01*
X94338571Y-90892142D02*
X94338571Y-87892142D01*
X95767142Y-87892142D01*
X97338571Y-90892142D02*
X97052857Y-90749285D01*
X96910000Y-90463571D01*
X96910000Y-87892142D01*
X98481428Y-90892142D02*
X98481428Y-88892142D01*
X98481428Y-87892142D02*
X98338571Y-88035000D01*
X98481428Y-88177857D01*
X98624285Y-88035000D01*
X98481428Y-87892142D01*
X98481428Y-88177857D01*
X101195714Y-88892142D02*
X101195714Y-91320714D01*
X101052857Y-91606428D01*
X100910000Y-91749285D01*
X100624285Y-91892142D01*
X100195714Y-91892142D01*
X99910000Y-91749285D01*
X101195714Y-90749285D02*
X100910000Y-90892142D01*
X100338571Y-90892142D01*
X100052857Y-90749285D01*
X99910000Y-90606428D01*
X99767142Y-90320714D01*
X99767142Y-89463571D01*
X99910000Y-89177857D01*
X100052857Y-89035000D01*
X100338571Y-88892142D01*
X100910000Y-88892142D01*
X101195714Y-89035000D01*
X102624285Y-90892142D02*
X102624285Y-87892142D01*
X103910000Y-90892142D02*
X103910000Y-89320714D01*
X103767142Y-89035000D01*
X103481428Y-88892142D01*
X103052857Y-88892142D01*
X102767142Y-89035000D01*
X102624285Y-89177857D01*
X104910000Y-88892142D02*
X106052857Y-88892142D01*
X105338571Y-87892142D02*
X105338571Y-90463571D01*
X105481428Y-90749285D01*
X105767142Y-90892142D01*
X106052857Y-90892142D01*
X109195714Y-88177857D02*
X109338571Y-88035000D01*
X109624285Y-87892142D01*
X110338571Y-87892142D01*
X110624285Y-88035000D01*
X110767142Y-88177857D01*
X110910000Y-88463571D01*
X110910000Y-88749285D01*
X110767142Y-89177857D01*
X109052857Y-90892142D01*
X110910000Y-90892142D01*
X112624285Y-89177857D02*
X112338571Y-89035000D01*
X112195714Y-88892142D01*
X112052857Y-88606428D01*
X112052857Y-88463571D01*
X112195714Y-88177857D01*
X112338571Y-88035000D01*
X112624285Y-87892142D01*
X113195714Y-87892142D01*
X113481428Y-88035000D01*
X113624285Y-88177857D01*
X113767142Y-88463571D01*
X113767142Y-88606428D01*
X113624285Y-88892142D01*
X113481428Y-89035000D01*
X113195714Y-89177857D01*
X112624285Y-89177857D01*
X112338571Y-89320714D01*
X112195714Y-89463571D01*
X112052857Y-89749285D01*
X112052857Y-90320714D01*
X112195714Y-90606428D01*
X112338571Y-90749285D01*
X112624285Y-90892142D01*
X113195714Y-90892142D01*
X113481428Y-90749285D01*
X113624285Y-90606428D01*
X113767142Y-90320714D01*
X113767142Y-89749285D01*
X113624285Y-89463571D01*
X113481428Y-89320714D01*
X113195714Y-89177857D01*
X114910000Y-88177857D02*
X115052857Y-88035000D01*
X115338571Y-87892142D01*
X116052857Y-87892142D01*
X116338571Y-88035000D01*
X116481428Y-88177857D01*
X116624285Y-88463571D01*
X116624285Y-88749285D01*
X116481428Y-89177857D01*
X114767142Y-90892142D01*
X116624285Y-90892142D01*
D10*
D11*
X142725714Y-127607142D02*
X142940000Y-127678571D01*
X143297142Y-127678571D01*
X143440000Y-127607142D01*
X143511428Y-127535714D01*
X143582857Y-127392857D01*
X143582857Y-127250000D01*
X143511428Y-127107142D01*
X143440000Y-127035714D01*
X143297142Y-126964285D01*
X143011428Y-126892857D01*
X142868571Y-126821428D01*
X142797142Y-126750000D01*
X142725714Y-126607142D01*
X142725714Y-126464285D01*
X142797142Y-126321428D01*
X142868571Y-126250000D01*
X143011428Y-126178571D01*
X143368571Y-126178571D01*
X143582857Y-126250000D01*
X145082857Y-127535714D02*
X145011428Y-127607142D01*
X144797142Y-127678571D01*
X144654285Y-127678571D01*
X144440000Y-127607142D01*
X144297142Y-127464285D01*
X144225714Y-127321428D01*
X144154285Y-127035714D01*
X144154285Y-126821428D01*
X144225714Y-126535714D01*
X144297142Y-126392857D01*
X144440000Y-126250000D01*
X144654285Y-126178571D01*
X144797142Y-126178571D01*
X145011428Y-126250000D01*
X145082857Y-126321428D01*
X146440000Y-127678571D02*
X145725714Y-127678571D01*
X145725714Y-126178571D01*
X148440000Y-128178571D02*
X148440000Y-126035714D01*
X150582857Y-127607142D02*
X150797142Y-127678571D01*
X151154285Y-127678571D01*
X151297142Y-127607142D01*
X151368571Y-127535714D01*
X151440000Y-127392857D01*
X151440000Y-127250000D01*
X151368571Y-127107142D01*
X151297142Y-127035714D01*
X151154285Y-126964285D01*
X150868571Y-126892857D01*
X150725714Y-126821428D01*
X150654285Y-126750000D01*
X150582857Y-126607142D01*
X150582857Y-126464285D01*
X150654285Y-126321428D01*
X150725714Y-126250000D01*
X150868571Y-126178571D01*
X151225714Y-126178571D01*
X151440000Y-126250000D01*
X152082857Y-127678571D02*
X152082857Y-126178571D01*
X152440000Y-126178571D01*
X152654285Y-126250000D01*
X152797142Y-126392857D01*
X152868571Y-126535714D01*
X152940000Y-126821428D01*
X152940000Y-127035714D01*
X152868571Y-127321428D01*
X152797142Y-127464285D01*
X152654285Y-127607142D01*
X152440000Y-127678571D01*
X152082857Y-127678571D01*
X153511428Y-127250000D02*
X154225714Y-127250000D01*
X153368571Y-127678571D02*
X153868571Y-126178571D01*
X154368571Y-127678571D01*
X156368571Y-128178571D02*
X156368571Y-126035714D01*
X159368571Y-126250000D02*
X159225714Y-126178571D01*
X159011428Y-126178571D01*
X158797142Y-126250000D01*
X158654285Y-126392857D01*
X158582857Y-126535714D01*
X158511428Y-126821428D01*
X158511428Y-127035714D01*
X158582857Y-127321428D01*
X158654285Y-127464285D01*
X158797142Y-127607142D01*
X159011428Y-127678571D01*
X159154285Y-127678571D01*
X159368571Y-127607142D01*
X159440000Y-127535714D01*
X159440000Y-127035714D01*
X159154285Y-127035714D01*
X160940000Y-127678571D02*
X160440000Y-126964285D01*
X160082857Y-127678571D02*
X160082857Y-126178571D01*
X160654285Y-126178571D01*
X160797142Y-126250000D01*
X160868571Y-126321428D01*
X160940000Y-126464285D01*
X160940000Y-126678571D01*
X160868571Y-126821428D01*
X160797142Y-126892857D01*
X160654285Y-126964285D01*
X160082857Y-126964285D01*
X161868571Y-126178571D02*
X162154285Y-126178571D01*
X162297142Y-126250000D01*
X162440000Y-126392857D01*
X162511428Y-126678571D01*
X162511428Y-127178571D01*
X162440000Y-127464285D01*
X162297142Y-127607142D01*
X162154285Y-127678571D01*
X161868571Y-127678571D01*
X161725714Y-127607142D01*
X161582857Y-127464285D01*
X161511428Y-127178571D01*
X161511428Y-126678571D01*
X161582857Y-126392857D01*
X161725714Y-126250000D01*
X161868571Y-126178571D01*
X163154285Y-126178571D02*
X163154285Y-127392857D01*
X163225714Y-127535714D01*
X163297142Y-127607142D01*
X163440000Y-127678571D01*
X163725714Y-127678571D01*
X163868571Y-127607142D01*
X163940000Y-127535714D01*
X164011428Y-127392857D01*
X164011428Y-126178571D01*
X164725714Y-127678571D02*
X164725714Y-126178571D01*
X165582857Y-127678571D01*
X165582857Y-126178571D01*
X166297142Y-127678571D02*
X166297142Y-126178571D01*
X166654285Y-126178571D01*
X166868571Y-126250000D01*
X167011428Y-126392857D01*
X167082857Y-126535714D01*
X167154285Y-126821428D01*
X167154285Y-127035714D01*
X167082857Y-127321428D01*
X167011428Y-127464285D01*
X166868571Y-127607142D01*
X166654285Y-127678571D01*
X166297142Y-127678571D01*
D10*
D11*
X140478571Y-101008571D02*
X140478571Y-99508571D01*
X141050000Y-99508571D01*
X141192857Y-99580000D01*
X141264285Y-99651428D01*
X141335714Y-99794285D01*
X141335714Y-100008571D01*
X141264285Y-100151428D01*
X141192857Y-100222857D01*
X141050000Y-100294285D01*
X140478571Y-100294285D01*
X142192857Y-101008571D02*
X142050000Y-100937142D01*
X141978571Y-100865714D01*
X141907142Y-100722857D01*
X141907142Y-100294285D01*
X141978571Y-100151428D01*
X142050000Y-100080000D01*
X142192857Y-100008571D01*
X142407142Y-100008571D01*
X142550000Y-100080000D01*
X142621428Y-100151428D01*
X142692857Y-100294285D01*
X142692857Y-100722857D01*
X142621428Y-100865714D01*
X142550000Y-100937142D01*
X142407142Y-101008571D01*
X142192857Y-101008571D01*
X143192857Y-100008571D02*
X143478571Y-101008571D01*
X143764285Y-100294285D01*
X144050000Y-101008571D01*
X144335714Y-100008571D01*
X145478571Y-100937142D02*
X145335714Y-101008571D01*
X145050000Y-101008571D01*
X144907142Y-100937142D01*
X144835714Y-100794285D01*
X144835714Y-100222857D01*
X144907142Y-100080000D01*
X145050000Y-100008571D01*
X145335714Y-100008571D01*
X145478571Y-100080000D01*
X145550000Y-100222857D01*
X145550000Y-100365714D01*
X144835714Y-100508571D01*
X146192857Y-101008571D02*
X146192857Y-100008571D01*
X146192857Y-100294285D02*
X146264285Y-100151428D01*
X146335714Y-100080000D01*
X146478571Y-100008571D01*
X146621428Y-100008571D01*
X148978571Y-101008571D02*
X148264285Y-101008571D01*
X148264285Y-99508571D01*
X149478571Y-100222857D02*
X149978571Y-100222857D01*
X150192857Y-101008571D02*
X149478571Y-101008571D01*
X149478571Y-99508571D01*
X150192857Y-99508571D01*
X150835714Y-101008571D02*
X150835714Y-99508571D01*
X151192857Y-99508571D01*
X151407142Y-99580000D01*
X151550000Y-99722857D01*
X151621428Y-99865714D01*
X151692857Y-100151428D01*
X151692857Y-100365714D01*
X151621428Y-100651428D01*
X151550000Y-100794285D01*
X151407142Y-100937142D01*
X151192857Y-101008571D01*
X150835714Y-101008571D01*
D10*
D11*
X108621428Y-107993571D02*
X108621428Y-106493571D01*
X108978571Y-106493571D01*
X109192857Y-106565000D01*
X109335714Y-106707857D01*
X109407142Y-106850714D01*
X109478571Y-107136428D01*
X109478571Y-107350714D01*
X109407142Y-107636428D01*
X109335714Y-107779285D01*
X109192857Y-107922142D01*
X108978571Y-107993571D01*
X108621428Y-107993571D01*
X110692857Y-107922142D02*
X110550000Y-107993571D01*
X110264285Y-107993571D01*
X110121428Y-107922142D01*
X110050000Y-107779285D01*
X110050000Y-107207857D01*
X110121428Y-107065000D01*
X110264285Y-106993571D01*
X110550000Y-106993571D01*
X110692857Y-107065000D01*
X110764285Y-107207857D01*
X110764285Y-107350714D01*
X110050000Y-107493571D01*
X111407142Y-107993571D02*
X111407142Y-106493571D01*
X111407142Y-107065000D02*
X111550000Y-106993571D01*
X111835714Y-106993571D01*
X111978571Y-107065000D01*
X112050000Y-107136428D01*
X112121428Y-107279285D01*
X112121428Y-107707857D01*
X112050000Y-107850714D01*
X111978571Y-107922142D01*
X111835714Y-107993571D01*
X111550000Y-107993571D01*
X111407142Y-107922142D01*
X113407142Y-106993571D02*
X113407142Y-107993571D01*
X112764285Y-106993571D02*
X112764285Y-107779285D01*
X112835714Y-107922142D01*
X112978571Y-107993571D01*
X113192857Y-107993571D01*
X113335714Y-107922142D01*
X113407142Y-107850714D01*
X114764285Y-106993571D02*
X114764285Y-108207857D01*
X114692857Y-108350714D01*
X114621428Y-108422142D01*
X114478571Y-108493571D01*
X114264285Y-108493571D01*
X114121428Y-108422142D01*
X114764285Y-107922142D02*
X114621428Y-107993571D01*
X114335714Y-107993571D01*
X114192857Y-107922142D01*
X114121428Y-107850714D01*
X114050000Y-107707857D01*
X114050000Y-107279285D01*
X114121428Y-107136428D01*
X114192857Y-107065000D01*
X114335714Y-106993571D01*
X114621428Y-106993571D01*
X114764285Y-107065000D01*
X117335714Y-107993571D02*
X116621428Y-107993571D01*
X116621428Y-106493571D01*
X117835714Y-107207857D02*
X118335714Y-107207857D01*
X118550000Y-107993571D02*
X117835714Y-107993571D01*
X117835714Y-106493571D01*
X118550000Y-106493571D01*
X119192857Y-107993571D02*
X119192857Y-106493571D01*
X119550000Y-106493571D01*
X119764285Y-106565000D01*
X119907142Y-106707857D01*
X119978571Y-106850714D01*
X120050000Y-107136428D01*
X120050000Y-107350714D01*
X119978571Y-107636428D01*
X119907142Y-107779285D01*
X119764285Y-107922142D01*
X119550000Y-107993571D01*
X119192857Y-107993571D01*
D14*
%TO.P,J2,1,Pin_1*%
%TO.N,Net-(J2-Pad1)*%
X139700000Y-117080000D03*
%TO.P,J2,2,Pin_2*%
X137160000Y-117080000D03*
%TO.P,J2,3,Pin_3*%
%TO.N,Net-(J2-Pad3)*%
X134620000Y-117080000D03*
%TO.P,J2,4,Pin_4*%
X132080000Y-117080000D03*
%TO.P,J2,5,Pin_5*%
%TO.N,Net-(J2-Pad5)*%
X129540000Y-117080000D03*
%TO.P,J2,6,Pin_6*%
X127000000Y-117080000D03*
%TD*%
D15*
%TO.P,J4,1,Pin_1*%
%TO.N,Net-(J4-Pad1)*%
X106440000Y-121940000D03*
%TO.P,J4,2,Pin_2*%
X106440000Y-119400000D03*
%TO.P,J4,3,Pin_3*%
X106440000Y-116860000D03*
%TO.P,J4,4,Pin_4*%
X106440000Y-114320000D03*
%TO.P,J4,5,Pin_5*%
X106440000Y-111780000D03*
%TD*%
D14*
%TO.P,J1,1,Pin_1*%
%TO.N,Net-(U1-Pad10)*%
X130820000Y-98820000D03*
%TO.P,J1,2,Pin_2*%
%TO.N,Net-(D1-Pad2)*%
X133360000Y-98820000D03*
%TO.P,J1,3,Pin_3*%
%TO.N,Net-(J2-Pad1)*%
X135900000Y-98820000D03*
%TO.P,J1,4,Pin_4*%
X138440000Y-98820000D03*
%TD*%
D16*
%TO.P,U1,1,VCC*%
%TO.N,Net-(D1-Pad2)*%
X131255000Y-105410000D03*
%TO.P,U1,2,PA4*%
%TO.N,Net-(J3-Pad7)*%
X131255000Y-106680000D03*
%TO.P,U1,3,PA5*%
%TO.N,Net-(D2-Pad2)*%
X131255000Y-107950000D03*
%TO.P,U1,4,PA6/DAC*%
%TO.N,unconnected-(U1-Pad4)*%
X131255000Y-109220000D03*
%TO.P,U1,5,PA7*%
%TO.N,unconnected-(U1-Pad5)*%
X131255000Y-110490000D03*
%TO.P,U1,6,PB3/RXD*%
%TO.N,unconnected-(U1-Pad6)*%
X131255000Y-111760000D03*
%TO.P,U1,7,PB2/TXD*%
%TO.N,unconnected-(U1-Pad7)*%
X131255000Y-113030000D03*
%TO.P,U1,8,PB1/SDA*%
%TO.N,Net-(J2-Pad3)*%
X136205000Y-113030000D03*
%TO.P,U1,9,PB0/SCL*%
%TO.N,Net-(J2-Pad5)*%
X136205000Y-111760000D03*
%TO.P,U1,10,~{RESET}/UPDI/PA0*%
%TO.N,Net-(U1-Pad10)*%
X136205000Y-110490000D03*
%TO.P,U1,11,PA1*%
%TO.N,Net-(J3-Pad5)*%
X136205000Y-109220000D03*
%TO.P,U1,12,PA2*%
%TO.N,Net-(J3-Pad3)*%
X136205000Y-107950000D03*
%TO.P,U1,13,PA3/SCK*%
%TO.N,Net-(J3-Pad1)*%
X136205000Y-106680000D03*
%TO.P,U1,14,GND*%
%TO.N,Net-(J2-Pad1)*%
X136205000Y-105410000D03*
%TD*%
D17*
%TO.P,D2,1,K*%
%TO.N,Net-(D2-Pad1)*%
X126365000Y-111220000D03*
%TO.P,D2,2,A*%
%TO.N,Net-(D2-Pad2)*%
X126365000Y-107220000D03*
%TD*%
D18*
%TO.P,D1,1,K*%
%TO.N,Net-(D1-Pad1)*%
X131794000Y-102870000D03*
%TO.P,D1,2,A*%
%TO.N,Net-(D1-Pad2)*%
X127794000Y-102870000D03*
%TD*%
D19*
%TO.P,J3,1,Pin_1*%
%TO.N,Net-(J3-Pad1)*%
X144795000Y-105410000D03*
%TO.P,J3,2,Pin_2*%
%TO.N,Net-(J2-Pad1)*%
X149845000Y-105410000D03*
%TO.P,J3,3,Pin_3*%
%TO.N,Net-(J3-Pad3)*%
X144795000Y-107950000D03*
%TO.P,J3,4,Pin_4*%
%TO.N,Net-(J2-Pad1)*%
X149845000Y-107950000D03*
%TO.P,J3,5,Pin_5*%
%TO.N,Net-(J3-Pad5)*%
X144795000Y-110490000D03*
%TO.P,J3,6,Pin_6*%
%TO.N,Net-(J2-Pad1)*%
X149845000Y-110490000D03*
%TO.P,J3,7,Pin_7*%
%TO.N,Net-(J3-Pad7)*%
X144795000Y-113030000D03*
%TO.P,J3,8,Pin_8*%
%TO.N,Net-(J2-Pad1)*%
X149845000Y-113030000D03*
%TD*%
D18*
%TO.P,R1,1*%
%TO.N,Net-(J2-Pad1)*%
X139414000Y-102870000D03*
%TO.P,R1,2*%
%TO.N,Net-(D1-Pad1)*%
X135414000Y-102870000D03*
%TD*%
D17*
%TO.P,R2,1*%
%TO.N,Net-(J2-Pad1)*%
X122555000Y-107220000D03*
%TO.P,R2,2*%
%TO.N,Net-(D2-Pad1)*%
X122555000Y-111220000D03*
%TD*%
D20*
%TO.N,Net-(D1-Pad2)*%
X129286000Y-105410000D02*
X127794000Y-103918000D01*
X127794000Y-103918000D02*
X127794000Y-102870000D01*
X133594000Y-96764000D02*
X133350000Y-96520000D01*
X129540000Y-96520000D02*
X128270000Y-97790000D01*
X133350000Y-96520000D02*
X129540000Y-96520000D01*
X128270000Y-97790000D02*
X128270000Y-102394000D01*
X131255000Y-105410000D02*
X129286000Y-105410000D01*
X128270000Y-102394000D02*
X127794000Y-102870000D01*
X133594000Y-98820000D02*
X133594000Y-96764000D01*
%TO.N,Net-(D1-Pad1)*%
X131794000Y-102870000D02*
X135414000Y-102870000D01*
%TO.N,Net-(D2-Pad2)*%
X128175000Y-107220000D02*
X128905000Y-107950000D01*
X128905000Y-107950000D02*
X131255000Y-107950000D01*
X126365000Y-107220000D02*
X128175000Y-107220000D01*
%TO.N,Net-(D2-Pad1)*%
X122555000Y-111220000D02*
X126365000Y-111220000D01*
%TO.N,Net-(J2-Pad5)*%
X133350000Y-114300000D02*
X133350000Y-112395000D01*
X133350000Y-112395000D02*
X133985000Y-111760000D01*
X130175000Y-114935000D02*
X132715000Y-114935000D01*
X129540000Y-117080000D02*
X129540000Y-115570000D01*
X129540000Y-115570000D02*
X130175000Y-114935000D01*
X132715000Y-114935000D02*
X133350000Y-114300000D01*
X133985000Y-111760000D02*
X136205000Y-111760000D01*
X127000000Y-117080000D02*
X129540000Y-117080000D01*
%TO.N,Net-(J2-Pad1)*%
X124460000Y-104775000D02*
X125730000Y-103505000D01*
X138430000Y-105410000D02*
X136205000Y-105410000D01*
X149845000Y-105410000D02*
X149845000Y-111745000D01*
X134620000Y-95250000D02*
X128270000Y-95250000D01*
X139414000Y-102870000D02*
X148590000Y-102870000D01*
X139414000Y-101314000D02*
X138440000Y-100340000D01*
X139414000Y-102870000D02*
X139414000Y-104426000D01*
X149845000Y-104155000D02*
X149845000Y-105410000D01*
X138440000Y-100340000D02*
X138440000Y-98820000D01*
X123190000Y-104775000D02*
X124460000Y-104775000D01*
X127000000Y-96520000D02*
X127000000Y-100330000D01*
X135900000Y-98820000D02*
X138440000Y-98820000D01*
X127000000Y-100330000D02*
X125730000Y-101600000D01*
X139414000Y-104426000D02*
X138430000Y-105410000D01*
X148590000Y-102870000D02*
X149860000Y-104140000D01*
X122555000Y-107220000D02*
X122555000Y-105410000D01*
X125730000Y-103505000D02*
X125730000Y-101600000D01*
X136134000Y-98820000D02*
X136134000Y-96764000D01*
X137160000Y-117080000D02*
X139700000Y-117080000D01*
X149860000Y-104140000D02*
X149845000Y-104155000D01*
X122555000Y-105410000D02*
X123190000Y-104775000D01*
X139414000Y-101314000D02*
X139414000Y-102870000D01*
X136134000Y-96764000D02*
X134620000Y-95250000D01*
X149845000Y-111745000D02*
X149845000Y-113030000D01*
X139700000Y-117080000D02*
X139700000Y-114300000D01*
X128270000Y-95250000D02*
X127000000Y-96520000D01*
X142240000Y-111760000D02*
X149830000Y-111760000D01*
X149830000Y-111760000D02*
X149845000Y-111745000D01*
X139700000Y-114300000D02*
X142240000Y-111760000D01*
%TO.N,Net-(J2-Pad3)*%
X134620000Y-117080000D02*
X132080000Y-117080000D01*
X136205000Y-113030000D02*
X134620000Y-114615000D01*
X134620000Y-114615000D02*
X134620000Y-117080000D01*
X133985000Y-116445000D02*
X134620000Y-117080000D01*
%TO.N,Net-(J3-Pad1)*%
X140970000Y-105410000D02*
X139700000Y-106680000D01*
X144795000Y-105410000D02*
X140970000Y-105410000D01*
X139700000Y-106680000D02*
X136205000Y-106680000D01*
%TO.N,Net-(J3-Pad3)*%
X144795000Y-107950000D02*
X136205000Y-107950000D01*
%TO.N,Net-(J3-Pad5)*%
X139700000Y-109220000D02*
X136205000Y-109220000D01*
X144795000Y-110490000D02*
X140970000Y-110490000D01*
X140970000Y-110490000D02*
X139700000Y-109220000D01*
%TO.N,Net-(J3-Pad7)*%
X121285000Y-109220000D02*
X123825000Y-109220000D01*
X124460000Y-106045000D02*
X125095000Y-105410000D01*
X140970000Y-120015000D02*
X125730000Y-120015000D01*
X120650000Y-109855000D02*
X121285000Y-109220000D01*
X124460000Y-108585000D02*
X124460000Y-106045000D01*
X127635000Y-105410000D02*
X128905000Y-106680000D01*
X120650000Y-113030000D02*
X120650000Y-109855000D01*
X128905000Y-106680000D02*
X131255000Y-106680000D01*
X123825000Y-109220000D02*
X124460000Y-108585000D01*
X141605000Y-119380000D02*
X140970000Y-120015000D01*
X125095000Y-115570000D02*
X123190000Y-113665000D01*
X125730000Y-120015000D02*
X125095000Y-119380000D01*
X121285000Y-113665000D02*
X120650000Y-113030000D01*
X123190000Y-113665000D02*
X121285000Y-113665000D01*
X144145000Y-113030000D02*
X141605000Y-115570000D01*
X125095000Y-119380000D02*
X125095000Y-115570000D01*
X141605000Y-115570000D02*
X141605000Y-119380000D01*
X144795000Y-113030000D02*
X144145000Y-113030000D01*
X125095000Y-105410000D02*
X127635000Y-105410000D01*
%TO.N,Net-(J4-Pad1)*%
X106440000Y-111780000D02*
X106440000Y-121940000D01*
%TO.N,Net-(U1-Pad10)*%
X129540000Y-103682800D02*
X130200400Y-104343200D01*
X134620000Y-110490000D02*
X135890000Y-110490000D01*
X131054000Y-98820000D02*
X129540000Y-100334000D01*
X129540000Y-100334000D02*
X129540000Y-103682800D01*
X130200400Y-104343200D02*
X133350000Y-104343200D01*
X133350000Y-109220000D02*
X134620000Y-110490000D01*
X133350000Y-104343200D02*
X133350000Y-109220000D01*
%TD*%
M02*
